<svg width="170" height="170" viewBox="0 0 170 170" version="1.1" xmlns="http://www.w3.org/2000/svg">
<rect fill="#1069B4" rx="19.75" ry="19.75" width="170" height="170"/>
<rect fill="#FFF" x="19" y="19" width="132" height="132"/>
<path d="M40.731,121.097 C39.123,121.097 37.486,121.017 35.868,120.859 34.243,120.699 32.64,120.457 31.103,120.14 L30,119.913 V108.743 L31.806,109.327 C32.885,109.675 33.94,109.938 34.947,110.112 35.94,110.286 36.999,110.37 38.099,110.37 41.855,110.37 44.46,109.296 46.061,107.079 47.742,104.753 48.594,100.718 48.594,95.087 L48.594,52 H62.159 L62.159,97.08 C62.159,105.166 60.415,111.244 56.976,115.143 53.493,119.091 48.027,121.097 40.731,121.097"/>
<path d="M105.511,122.039 C94.983,122.039 86.507,118.824 80.316,112.48 74.133,106.148 71,97.406 71,86.496 71,75.619 74.134,66.892 80.316,60.559 86.507,54.216 94.984,51 105.511,51 116.039,51 124.509,54.216 130.683,60.56 136.847,66.894 139.974,75.62 139.974,86.496 139.974,97.406 136.857,106.146 130.71,112.478 124.552,118.823 116.076,122.039 105.511,122.039 M105.511,61.076 C99.08,61.076 94.075,63.301 90.214,67.876 86.347,72.458 84.386,78.691 84.386,86.404 84.386,94.148 86.347,100.379 90.211,104.927 94.071,109.474 99.074,111.685 105.511,111.685 111.948,111.685 116.963,109.474 120.84,104.925 124.72,100.376 126.688,94.146 126.688,86.404 126.688,78.695 124.71,72.462 120.812,67.88 116.917,63.304 111.912,61.076 105.511,61.076"/>
</svg>
