<svg xmlns="http://www.w3.org/2000/svg" version="1.1" width="500" height="493.87262">
<path d="M 107.84357,493.87261 C 49.019939,493.87261 4.1873648e-4,446.07847 4.1873648e-4,387.25495 V 106.61764 C 4.1873648e-4,47.794112 49.019939,-2.3916224e-5 107.84357,-2.3916224e-5 h 284.3137 c 60.04902,0 107.84315,47.794135916224 107.84315,106.617663916224 v 280.63731 c 0,58.82352 -47.79413,106.61766 -107.84315,106.61766 z" fill="#e3002c"/>
<path d="m 162.9907,144.60784 h 98.03904 c 23.28438,0 40.44114,4.90195 51.47064,14.70589 11.02949,9.80394 17.15676,23.2843 17.15676,40.44117 0,9.80394 -1.22434,18.38236 -3.67615,24.50983 -3.6765,6.12744 -7.353,11.02939 -11.0295,15.93138 -3.6765,3.67646 -7.35299,6.12744 -11.02949,8.57842 -3.6765,1.22538 -6.12762,2.45111 -8.57838,2.45111 v 1.22538 c 3.67649,0 6.12726,1.22539 9.80376,2.45112 3.6765,1.22538 7.353,3.6765 11.0295,7.35296 2.45215,3.67647 4.90188,7.35293 7.35299,13.4804 1.22435,4.90196 2.45216,12.25488 2.45216,19.60785 0,12.25488 1.22434,23.2843 3.67615,33.08824 1.22435,9.80391 3.6765,17.15687 8.57873,20.83333 h -39.21576 c -2.45215,-4.90195 -4.90188,-9.80394 -4.90188,-14.70589 0,-4.90195 -1.22435,-9.80394 -1.22435,-15.93138 0,-8.57841 0,-17.15686 -1.22434,-23.2843 -1.22435,-7.35297 -3.6765,-12.25492 -6.12762,-17.15687 -3.6765,-4.90199 -7.35265,-7.35296 -13.48026,-9.80394 -4.90188,-2.45111 -11.0295,-3.67646 -19.60788,-3.67646 h -53.9214 v 84.55884 H 162.99416 V 144.60801 Z m 35.53926,93.13726 h 60.04902 c 11.02915,0 19.60787,-2.45112 25.73514,-8.57842 6.12761,-4.90195 9.80411,-13.4804 9.80411,-24.50979 0,-6.12748 -1.22434,-11.02943 -3.6765,-14.70589 -1.22434,-4.90199 -4.90223,-7.35297 -7.35299,-9.80394 -3.6765,-2.45112 -7.353,-3.67647 -12.25488,-4.90195 -3.6765,-1.22539 -8.57839,-1.22539 -13.48061,-1.22539 h -58.82329 v 63.72548 z" fill="#fff"/>
</svg>
