<svg xmlns="http://www.w3.org/2000/svg" version="1.1" width="110" height="110" viewBox="0 0 110 110">
<g transform="translate(-235.03363,158.25755)">
<path d="m 330.82663,-48.109548 -11.232,0 -13.304,-16.663 -32.528,0 -13.214,16.663 -11.308,0 19.93,-24.858 c -2.999,-0.412 -6.048,-1.029 -8.981,-1.633 -3.524,-6.551 -5.597,-14.115 -5.597,-22.146 l 0,-43.611002 c 0,-6.825 5.095,-12.48 11.645,-13.4 l 47.696,0 c 6.497,0.92 11.566,6.575 11.566,13.4 l 0,43.611002 c 0,8.03 -2.174,15.595 -5.584,22.146 -2.92,0.604 -5.982,1.35 -8.993,1.813 l 19.904,24.678 z" style="clip-rule:evenodd;fill:#38b35c;fill-opacity:1;fill-rule:evenodd"/>
<path d="m 318.21863,-121.09555 c 0,15.575 -12.622,28.210002 -28.204,28.210002 -15.568,0 -28.204,-12.635002 -28.204,-28.210002 l 0,-17.26 c 0,-5.649 4.556,-10.21 10.218,-10.21 l 35.974,0 c 5.623,0 10.217,4.561 10.217,10.21 l 0,17.26 z" style="clip-rule:evenodd;fill:#ffffff;fill-rule:evenodd"/>
<path d="m 275.19163,-89.926548 c 0,-2.959 -2.316,-5.185 -5.147,-5.185 -2.753,0 -5.03,2.226 -5.03,5.185 0,2.678 2.277,5.069 5.03,5.069 2.831,0 5.147,-2.391 5.147,-5.069" style="clip-rule:evenodd;fill:#ffffff;fill-rule:evenodd"/>
<path d="m 310.04863,-84.857548 c 2.778,0 5.055,-2.392 5.055,-5.069 0,-2.959 -2.276,-5.185 -5.055,-5.185 -2.793,0 -5.122,2.226 -5.122,5.185 0,2.678 2.329,5.069 5.122,5.069" style="clip-rule:evenodd;fill:#ffffff;fill-rule:evenodd"/>
<path d="m 272.18777,-117.84055 c 0,0.817 0.0489,1.57 0.18133,2.227 0.12026,0.688 0.3495,1.229 0.6774,1.685 0.35044,0.477 0.78639,0.792 1.37829,1.094 0.56841,0.264 1.29279,0.385 2.1393,0.385 1.03912,0 1.93355,-0.36 2.75658,-1.042 0.8343,-0.714 1.23266,-1.833 1.23266,-3.294 0,-0.791 -0.0977,-1.473 -0.2781,-2.072 -0.22924,-0.553 -0.54305,-1.036 -1.02784,-1.538 -0.435,-0.463 -1.05133,-0.868 -1.81423,-1.228 -0.76102,-0.38 -1.69209,-0.759 -2.80355,-1.184 -1.47506,-0.515 -2.75564,-1.068 -3.83234,-1.698 -1.07576,-0.643 -1.99368,-1.371 -2.69551,-2.2 -0.73565,-0.817 -1.28058,-1.808 -1.59438,-2.915 -0.3636,-1.081 -0.50922,-2.355 -0.50922,-3.81 0,-3.474 0.88315,-6.085 2.73309,-7.784 1.81329,-1.698 4.29176,-2.567 7.47113,-2.567 1.48633,0 2.83925,0.18 4.09634,0.515 1.24582,0.354 2.33285,0.921 3.25265,1.686 0.89443,0.76 1.61975,1.75 2.12803,2.947 0.48292,1.203 0.73659,2.638 0.73659,4.324 l 0,0.991 -6.37,0 c 0,-1.686 -0.27716,-2.966 -0.8343,-3.874 -0.5562,-0.939 -1.47412,-1.344 -2.76879,-1.344 -0.74881,0 -1.35387,0.103 -1.86027,0.315 -0.49419,0.251 -0.89537,0.554 -1.16032,0.921 -0.29125,0.373 -0.48386,0.829 -0.62948,1.305 -0.0968,0.527 -0.14469,1.016 -0.14469,1.544 0,1.068 0.22924,2.001 0.6774,2.729 0.38615,0.72 1.33037,1.421 2.7453,2.052 l 5.14862,2.335 c 1.24487,0.618 2.28587,1.235 3.08259,1.866 0.79766,0.649 1.42715,1.306 1.93449,2.058 0.45943,0.741 0.7986,1.538 0.99214,2.464 0.16818,0.869 0.26495,1.859 0.26495,2.908 0,3.744 -1.00342,6.446 -3.02152,8.145 -2.0322,1.685 -4.82448,2.503 -8.43885,2.503 -3.77127,0 -6.47899,-0.843 -8.07525,-2.58 -1.65545,-1.757 -2.46438,-4.233 -2.46438,-7.528 l 0,-1.434 6.69602,0 0,1.093 z" style="fill:#080103"/>
<g transform="matrix(0.75311509,0,0,0.96610255,251.35655,-158.36595)">
<path d="m 53.861328,15.033203 0,37.830078 7.552734,0 0,-13.43164 11.71875,13.43164 9.597657,0 -17.332031,-19.570312 17.02539,-18.259766 -9.714844,0 -11.294922,12.181641 0,-12.181641 z" style="color:#000000"/>
</g>
</g>
</svg>
