<svg xmlns="http://www.w3.org/2000/svg" viewBox="0 0 50 50" version="1.1">
<circle fill="#f59b0f" cx="25" cy="-25" r="25" transform="rotate(90)"/>
<path d="m 31.985147,17.027901 q 1.184382,1.301518 1.809111,3.18872 0.637744,1.887202 0.637744,4.281996 0,2.394794 -0.650759,4.295011 -0.637744,1.887202 -1.796096,3.149675 -1.197397,1.314534 -2.83731,1.978309 -1.626899,0.663774 -3.722343,0.663774 -2.043385,0 -3.722343,-0.67679 Q 20.037207,33.231807 18.86584,31.943303 17.694473,30.6548 17.056729,28.780613 16.432,26.906427 16.432,24.498617 q 0,-2.368763 0.624729,-4.24295 0.624729,-1.887202 1.822126,-3.227766 1.145337,-1.275488 2.837311,-1.952278 1.704989,-0.67679 3.709328,-0.67679 2.082429,0 3.735358,0.689805 1.665944,0.67679 2.824295,1.939263 z m -0.234273,7.470716 q 0,-3.774404 -1.691974,-5.817788 -1.691974,-2.056399 -4.620391,-2.056399 -2.954447,0 -4.646421,2.056399 -1.678959,2.043384 -1.678959,5.817788 0,3.81345 1.718004,5.843819 1.718005,2.017353 4.607376,2.017353 2.889371,0 4.59436,-2.017353 1.718005,-2.030369 1.718005,-5.843819 z" fill="#000"/>
</svg>
