<svg xmlns="http://www.w3.org/2000/svg" version="1.1" width="110" height="110" viewBox="0 0 110 110">
<g transform="translate(-253.49031,160.799)">
<path d="m 349.28331,-50.651 -11.232,0 -13.304,-16.663 -32.528,0 -13.214,16.663 -11.308,0 19.93,-24.858 c -2.999,-0.412 -6.048,-1.029 -8.981,-1.633 -3.524,-6.551 -5.597,-14.115 -5.597,-22.146 l 0,-43.611 c 0,-6.825 5.095,-12.48 11.645,-13.4 l 47.696,0 c 6.497,0.92 11.566,6.575 11.566,13.4 l 0,43.611 c 0,8.03 -2.174,15.595 -5.584,22.146 -2.92,0.604 -5.982,1.35 -8.993,1.813 l 19.904,24.678 z" style="clip-rule:evenodd;fill:#f17c24;fill-opacity:1;fill-rule:evenodd"/>
<path d="m 336.67531,-123.637 c 0,15.575 -12.622,28.21 -28.204,28.21 -15.568,0 -28.204,-12.635 -28.204,-28.21 l 0,-17.26 c 0,-5.649 4.556,-10.21 10.218,-10.21 l 35.974,0 c 5.623,0 10.217,4.561 10.217,10.21 l 0,17.26 z" style="clip-rule:evenodd;fill:#ffffff;fill-rule:evenodd" />
<path d="m 293.64831,-92.468 c 0,-2.959 -2.316,-5.185 -5.147,-5.185 -2.753,0 -5.03,2.226 -5.03,5.185 0,2.678 2.277,5.069 5.03,5.069 2.831,0 5.147,-2.391 5.147,-5.069" style="clip-rule:evenodd;fill:#ffffff;fill-rule:evenodd"/>
<path d="m 328.50531,-87.399 c 2.778,0 5.055,-2.392 5.055,-5.069 0,-2.959 -2.276,-5.185 -5.055,-5.185 -2.793,0 -5.122,2.226 -5.122,5.185 0,2.678 2.329,5.069 5.122,5.069" style="clip-rule:evenodd;fill:#ffffff;fill-rule:evenodd"/>
<path d="m 289.93912,-120.3798 c 0,0.81723 0.0481,1.57044 0.17835,2.22763 0.11829,0.68819 0.34377,1.22935 0.66628,1.68548 0.34468,0.47713 0.77345,0.79222 1.35562,1.09431 0.5591,0.26407 1.27155,0.38511 2.10416,0.38511 1.02205,0 1.90177,-0.36011 2.71127,-1.0423 0.8206,-0.7142 1.21242,-1.83352 1.21242,-3.29493 0,-0.79123 -0.0961,-1.47342 -0.27354,-2.07259 -0.22548,-0.55316 -0.53412,-1.03629 -1.01095,-1.53844 -0.42786,-0.46313 -1.03405,-0.86824 -1.78442,-1.22834 -0.74852,-0.38011 -1.66428,-0.75922 -2.75748,-1.18434 -1.45082,-0.51515 -2.71035,-1.0683 -3.76936,-1.69848 -1.05807,-0.64318 -1.96091,-1.37139 -2.6512,-2.20062 -0.72357,-0.81724 -1.25953,-1.80852 -1.56818,-2.91583 -0.35762,-1.08131 -0.50087,-2.35567 -0.50087,-3.81108 0,-3.47499 0.86865,-6.08673 2.68818,-7.78621 1.78351,-1.69848 4.22124,-2.56773 7.34835,-2.56773 1.46192,0 2.7926,0.18005 4.02903,0.51515 1.22534,0.3541 2.29452,0.92126 3.1992,1.68648 0.87973,0.76021 1.59313,1.75049 2.09306,2.94783 0.47498,1.20334 0.72449,2.63875 0.72449,4.32523 l 0,0.99128 -6.26533,0 c 0,-1.68648 -0.27261,-2.96684 -0.82058,-3.8751 -0.54707,-0.93926 -1.44991,-1.34438 -2.7233,-1.34438 -0.73649,0 -1.33161,0.10303 -1.8297,0.31509 -0.48607,0.25107 -0.88065,0.55416 -1.14124,0.92126 -0.28647,0.37311 -0.47591,0.82924 -0.61914,1.30537 -0.0951,0.52715 -0.1423,1.01629 -0.1423,1.54444 0,1.0683 0.22547,2.00157 0.66626,2.72977 0.3798,0.72021 1.3085,1.42141 2.70018,2.05258 l 5.06401,2.33567 c 1.22442,0.61817 2.24831,1.23535 3.03194,1.86653 0.78455,0.64918 1.40369,1.30637 1.90269,2.05858 0.45189,0.74121 0.78548,1.53844 0.97584,2.4647 0.1654,0.86924 0.26059,1.85952 0.26059,2.90882 0,3.74506 -0.98692,6.44783 -2.97186,8.14731 -1.9988,1.68548 -4.7452,2.50371 -8.30018,2.50371 -3.70929,0 -6.3725,-0.84324 -7.94253,-2.58073 -1.62824,-1.7575 -2.42388,-4.2342 -2.42388,-7.53013 l 0,-1.43441 6.58598,0 0,1.09331 z" style="fill:#080103"/>
<g transform="matrix(0.69033499,0,0,0.95320034,195.39933,-160.46815)">
<path d="m 158.97656,14.822266 8.26953,38.25 8.07813,0 4.4375,-21.632813 4.43945,21.632813 8.07813,0 8.26953,-38.25 -8.0625,0 -4.1543,21.361328 -4.38281,-21.361328 -8.2832,0 -4.3418,21.320312 -4.14844,-21.320312 z" style="color:#000000"/>
</g>
</g>
</svg>
