<svg version="1.1" xmlns="http://www.w3.org/2000/svg" viewBox="0 0 500 235.4">
<g transform="matrix(1.7318658,0,0,1.7318658,0.0449387,0)">
<path fill="#A77DC7" d="M288.1,17.4c2.2,4.4-2.3,5.6-6.1,4.3 c-14.9-5.2-51.6-6.6-68.2,9.3c-4.1,3.9-6.7,13.7-0.5,18.8s-6.3,4.8-9.6,3.3c-18.9-8.6-17.8-17.7-30.4-27.1 c-17.5-13.1-36-13-45.5-10.5c-5.4,1.4-9-2.2-1.9-6.2c27.2-15.2,59.1-4,69.4,12c1.2,1.9,3.6,2,5.3,0.2C209.9,11.8,238.3,0,264.9,0 C274.7,0,281.8,4.7,288.1,17.4L288.1,17.4z"/>
<path fill="#8246AF" d="M49.1,133.6H1.2c-4,0,1.7-9,18.4-19.9 C89,68.4,167.6,56.9,212,66.4c6.2,1.3,2.3,2.9,0,3c-18.3,1-97.1-1.5-158,61.6C52.1,133,50.8,133.6,49.1,133.6z"/>
<path fill="#8246AF" d="M163.9,135.9h-43.7c-11.1,0,32.4-51.1,91.3-59.9 c4.6-0.7,4.4,0.7,1.3,2.7c-20.1,12.8-44.8,25.6-44.8,54.6C167.9,136,165.6,135.9,163.9,135.9z"/>
<path fill="#8246AF" d="M73.3,98.8"/>
</g>
</svg>
