<svg xmlns="http://www.w3.org/2000/svg" width="600" height="588.59" viewBox="0 0 600 588.59">
<rect width="600" height="588.59" fill="#ff8c44"/>
<path d="M180.3,444.14C88.69,444.14,26.13,390.22,26.13,299c0-88.21,64.46-144.71,150.39-144.71,24.52,0,45.24,1.86,69,10.17l-4.16,49C221,204,203.3,200.63,181.06,200.63c-56.54,0-93.87,33.93-93.87,96.89s41.48,98.77,94.61,98.77c20.75,0,40.33-2.27,63-10.93l1.88,49.38c-17.72,6-41.83,9.43-66.34,9.43" fill="#fff"/>
<path d="M482.6,375.54H364.23l-24.88,65.58h-59.2l111.6-284.21h64.83L569.67,441.12H507.48ZM424.18,201.75h-0.76c-4.15,14.69-14.71,47.11-21.1,64.46l-23.39,66.34h88.22l-23.39-66.34c-6.4-17.35-16.2-49.77-19.58-64.46" fill="#fff"/>
</svg>
