<svg xmlns="http://www.w3.org/2000/svg" version="1.1" width="180" height="139.20561">
<g transform="translate(-287.14285,-325.61659) matrix(4.2056076,0,0,4.2056076,-447.99736,-2744.0564)">
<path d="m 217.6,745.1 0,0.4 0,0.4 c -0.2,1.6 -0.9,3.1 -2,4.5 l 0,0 c -2.9,3.6 -8.6,6 -15.1,6.1 6.9,-1.2 11.9,-5.2 11.9,-10 0,-5.7 -7.2,-10.4 -16,-10.4 -0.9,0 -1.7,0 -2.6,0.1 l -0.5,-1.6 -1.5,-4.7 c 10.9,1.2 19.8,4.9 23.7,9.7 l 0.1,0.1 c 1.1,1.4 1.8,2.8 2,4.4 l 0,0.2 0,0.4" fill="#953091"/>
<path d="m 193.9,761.9 c 2.1,0.5 4.4,0.8 6.8,1.1 l -4,-12.4 -2.8,-0.9 0,7 c -7.7,-0.8 -13.5,-5.1 -13.5,-10.3 0,-3.1 2.1,-5.9 5.4,-7.8 1.8,-1 4,-1.8 6.4,-2.2 l 0,0 c -6.6,0 -12.3,2.4 -15.3,6 l -0.1,0.1 c -1.1,1.4 -1.8,3 -2,4.6 l 0,0.4 0,0.4 0,0.4 0,0.4 c 0.2,1.6 0.9,3.1 2,4.6 l 0.1,0.1 c 3,3.7 9.2,6.8 17,8.5 m 17,-16.8 H 208 c -2.3,2.2 -5.1,3.8 -8.2,4.8 l 3.1,1 c 3.2,-1.3 5.9,-3.3 8,-5.8 z m -2.3,-2.8 h -3.8 c -3.2,2.9 -7.4,4.9 -12,5.4 l 4.2,1.3 c 4.7,-1 8.8,-3.4 11.6,-6.7 z m -3.1,-2.8 h -4 c -3.8,3.5 -8.9,5.6 -14.5,5.6 -1.1,0 -2.1,-0.1 -3.2,-0.2 l 7,2.2 c 6,-0.6 11.3,-3.4 14.7,-7.6 z" fill="#254ea1"/>
</g>
</svg>
