<svg width="170" height="170" viewBox="0 0 170 170" version="1.1" xmlns="http://www.w3.org/2000/svg">
<rect fill="#EB5A28" rx="19.75" ry="19.75" width="170" height="170"/>
<rect fill="#FFF" x="19" y="19" width="132" height="132"/>
<path d="M44.662,119.123 C43.14,119.123 41.6,119.039 40.086,118.881 38.562,118.721 37.054,118.477 35.607,118.156 L34.706,117.959 V107.18 L36.229,107.707 C37.248,108.061 38.248,108.328 39.202,108.506 40.139,108.68 41.142,108.766 42.181,108.766 45.756,108.766 48.243,107.653 49.784,105.362 51.401,102.958 52.222,98.815 52.222,93.048 L52.222,49.682 H64.693 V95.06 C64.693,103.169 63.072,109.255 59.877,113.148 56.624,117.111 51.505,119.123 44.662,119.123"/>
<path d="M125.29,118.558 V65.786 L107.367,118.557 H98.615 L81.062,65.938 V118.557 H71.666 V49.681 H85.791 L102.996,102.105 C103.091,102.4 103.182,102.701 103.268,103.005 103.362,102.603 103.46,102.255 103.56,101.956 L121.419,49.681 L135.371,49.681 V118.558 H125.29"/>
</svg>
