<svg xmlns="http://www.w3.org/2000/svg" width="600" height="588.57" viewBox="0 0 600 588.57">
<rect width="600" height="588.57" fill="#3aac94"/>
<path d="M238.13,443.51C144.74,443.51,81,389.61,81,298.4c0-88.2,65.72-144.76,153.34-144.76,25,0,46.12,1.9,70.32,10.17l-4.22,49c-20.75-9.43-38.82-12.81-61.5-12.81-57.64,0-95.68,33.91-95.68,96.87s42.26,98.76,96.44,98.76c21.16,0,41.14-2.27,64.19-10.92l1.91,49.36c-18.06,6-42.65,9.43-67.63,9.43" fill="#fff"/>
<path d="M391.8,394.12c25.36,0,36.13-13.93,36.13-47.11V156.29h58.79V352.66c0,57.3-23,92.74-84.92,92.74-12.69,0-27.3-1.51-39.58-5.65L363.76,390a95.55,95.55,0,0,0,28,4.13" fill="#fff"/>
</svg>
