<svg xmlns="http://www.w3.org/2000/svg" width="44.54031" height="41.260887" viewBox="0 0 44.540309 41.260887" version="1.1">
<g transform="translate(-19.295798,-84.357659) matrix(0.35277777,0,0,-0.35277777,-44.432589,209.98902) translate(210.0674,300.9614)">
<path fill="#172a88" d="M 0,0 1.681,4.631 C 6.207,17.526 14.851,30.3 33.707,30.3 H 80.729 L 76.526,18.82 H 39.303 c -7.67,0 -11.755,-4.245 -15.549,-11.795 L 95.852,7.021 c -5.271,27.365 -31.093,48.138 -62.145,48.138 -34.861,0 -63.127,-26.181 -63.127,-58.478 0,-1.06 0.033,-2.109 0.094,-3.152 l 96.746,0.007 -1.678,-4.628 C 61.21,-23.989 52.555,-36.761 33.707,-36.761 h -47.02 l 4.186,11.48 h 37.238 c 7.668,0 11.753,4.238 15.545,11.79 h -72.121 c 5.195,-27.452 31.052,-48.31 62.172,-48.31 34.862,0 63.129,26.177 63.129,58.482 0,1.116 -0.039,2.224 -0.104,3.323 z" />
</g>
</svg>
