<svg version="1.1" xmlns="http://www.w3.org/2000/svg" width="450" height="450" viewBox="0 0 450 450">
<circle fill="#C55C1D" cx="225" cy="225" r="225"/>
<path fill="#FFF" d="M295.2,84.5v42.8h-13.3c-3.6,0-8.6,0.6-15,1.7c-23.3,3.1-42.8,11.4-58.6,24.9c-16.1,14.1-25.6,30.2-28.7,48.2 c14.1-16.1,34.1-24.1,59.8-24.1c25.5,0,45.8,8.3,60.9,24.9c15.1,16.6,22.7,38.1,22.7,64.4c0,28.3-9,51.7-27,70.2 c-18,18.6-40.7,27.8-68.2,27.8c-32.1,0-57.4-11.5-75.6-34.5c-16.9-21.3-25.4-48.8-25.4-82.3c0-51.5,15.6-92.4,47-122.6 c24.4-23,55.5-36.3,93.5-39.9c9.7-1.1,16.9-1.7,21.6-1.7L295.2,84.5L295.2,84.5z M227.9,324.3c14.1,0,25.1-5.7,32.8-17 c6.9-9.7,10.4-21.9,10.4-36.6c0-14.7-3.7-26.9-11.2-36.6c-8.3-10.3-20.1-15.4-35.3-15.4c-20.2,0-35.1,9.1-44.5,27.4 c-1.9,4.2-2.9,9.1-2.9,15c0,17.5,3.7,32,11.2,43.6C197.6,317.8,210.7,324.3,227.9,324.3z"/>
</svg>
