<svg xmlns="http://www.w3.org/2000/svg" width="600" height="588.57" viewBox="0 0 600 588.57">
<rect width="600" height="588.57" fill="#759dd9"/>
<path d="M178.59,443.69C87,443.69,24.42,389.77,24.42,298.55c0-88.26,64.48-144.76,150.4-144.76,24.5,0,45.25,1.88,69,10.19l-4.15,49c-20.36-9.41-38.08-12.81-60.31-12.81-56.54,0-93.85,33.93-93.85,96.88s41.46,98.76,94.62,98.76c20.71,0,40.34-2.27,63-10.93l1.82,49.41c-17.72,6-41.85,9.43-66.36,9.43" fill="#fff"/>
<path d="M388.17,440.66H310.51V156.46h77.66c96.12,0,167.72,38.43,167.72,143.24,0,99.51-73.87,141-167.72,141m-5.28-239.41H367.81V396.93h15.08c63,0,113.47-24.5,113.47-97.63,0-76.53-50.52-98-113.47-98" fill="#fff"/>
</svg>
