<svg xmlns="http://www.w3.org/2000/svg" version="1.1" width="500" height="493.87253">
<path d="M 107.84357,493.87253 C 49.019939,493.87253 4.1873648e-4,446.0784 4.1873648e-4,387.25497 V 106.61767 C 4.1873648e-4,47.794139 49.019939,2.8240643e-6 107.84357,2.8240643e-6 h 284.3137 C 452.20629,2.8240643e-6 500.00042,47.794139 500.00042,106.61767 v 280.6373 c 0,58.82343 -47.79413,106.61756 -107.84315,106.61756 z" fill="#008659"/>
<path d="m 345.58852,341.91185 h -23.28403 l -6.12761,-23.28434 c -9.80377,11.02942 -19.60788,18.38235 -28.18626,22.05885 -9.80377,4.90195 -20.83326,6.12744 -34.31387,6.12744 -14.70565,0 -29.41165,-2.45111 -41.66653,-8.57845 -12.25488,-4.90195 -22.05899,-12.25488 -30.63737,-22.05882 -8.57838,-9.8039 -14.70565,-22.05882 -19.60788,-34.31373 -4.90188,-13.48041 -7.35265,-26.96077 -7.35265,-41.66666 0,-14.70589 2.45215,-28.1863 7.35265,-41.6667 4.90223,-12.25488 11.0295,-23.28431 19.60788,-33.08821 8.57838,-9.80394 18.38249,-18.38236 30.63737,-23.28434 12.25488,-6.12744 26.96088,-8.57842 41.66653,-8.57842 12.25488,0 22.05899,1.22539 33.08848,3.67647 9.80377,3.67646 18.38215,7.35292 26.96053,13.4804 7.353,6.12744 13.48061,13.48037 19.60788,22.05882 4.90223,8.57841 8.57873,18.38235 9.80411,30.63727 H 307.5985 c -1.22435,-7.35297 -3.6765,-13.48041 -6.12762,-18.38236 -3.6765,-4.90198 -7.35265,-8.57845 -12.25488,-12.25491 -4.90188,-3.67647 -9.80376,-6.12744 -15.93138,-7.35293 -6.12726,-2.45111 -12.25488,-2.45111 -19.60787,-2.45111 -11.02915,0 -19.60753,1.22538 -28.18626,6.12747 -7.35265,3.67646 -14.70565,9.8039 -19.60788,17.15687 -4.90188,7.35292 -8.57838,15.93138 -11.02915,25.73528 -2.45215,8.57845 -3.6765,18.38235 -3.6765,28.18629 0,9.80391 1.22435,19.60785 3.6765,28.18626 2.45215,9.80394 6.12727,18.38239 11.02915,25.73532 4.90223,7.35293 12.25523,13.4804 19.60788,17.15687 8.57873,4.90195 17.15711,7.35292 28.18626,7.35292 9.80411,0 18.38249,-1.22538 24.5101,-3.67646 7.35265,-2.45112 13.48027,-6.12744 18.38215,-11.02943 4.90188,-4.90195 8.57838,-11.02939 11.0295,-18.38235 2.45215,-7.35293 4.90188,-14.70586 4.90188,-23.28431 h -55.14713 v -26.96077 h 88.23527 v 106.61766 z" fill="#fff"/>
</svg>
