<svg width="170" height="170" viewBox="0 0 170 170" version="1.1" xmlns="http://www.w3.org/2000/svg">
<rect fill="#F2D01F" rx="19.75" ry="19.75" width="170" height="170"/>
<rect fill="#FFF" x="19" y="19" width="132" height="132"/>
<path d="M48.276,123.262 C46.599,123.262 44.909,123.172 43.252,122.996 41.585,122.82 39.93,122.555 38.335,122.201 L37.346,121.984 V110.129 C40.144,111.098 41.242,111.395 42.282,111.588 43.313,111.779 44.413,111.875 45.554,111.875 49.477,111.875 52.207,110.65 53.901,108.131 55.676,105.483 56.577,100.926 56.577,94.58 L56.577,46.878 H70.27 V96.795 C70.27,105.715 68.491,112.41 64.983,116.691 61.411,121.051 55.791,123.262 48.276,123.262 Z"/>
<path d="M79.912,122.952 L79.912,47.189 H102.349 C111.126,47.189 118.043,48.894 122.906,52.257 127.915,55.722 130.453,60.649 130.453,66.902 130.453,71.257 129.095,74.998 126.414,78.02 124.535,80.14 122.042,81.831 118.97,83.071 122.757,84.413 125.814,86.314 128.088,88.745 131.171,92.05 132.734,96.249 132.734,101.229 132.734,108.125 130.012,113.553 124.645,117.36 119.412,121.071 111.949,122.954 102.46,122.954 L79.912,122.954 Z M100.513,112.083 C106.639,112.083 111.293,111.044 114.347,108.997 117.281,107.028 118.707,104.202 118.707,100.352 118.707,96.596 117.392,93.848 114.686,91.95 111.875,89.981 107.576,88.983 101.905,88.983 L93.383,88.983 V112.081 Z M100.18,78.527 C105.603,78.527 109.777,77.559 112.589,75.651 115.284,73.823 116.596,71.28 116.596,67.88 116.596,64.58 115.375,62.138 112.865,60.414 110.236,58.611 106.324,57.697 101.238,57.697 L93.383,57.697 V78.526 H100.18 Z"/>
</svg>
