<svg version="1.1" xmlns="http://www.w3.org/2000/svg" width="110" height="110" viewBox="0 0 110 110">
<path fill="#EF7A00" d="M95.813,110.178H84.575l-13.32-16.667H38.719l-13.23,16.667h-11.3L34.15,85.325 c-2.999-0.425-6.049-1.029-8.972-1.622c-3.525-6.538-5.61-14.131-5.61-22.162v-43.63c0-6.822,5.096-12.485,11.635-13.411h47.723 c6.461,0.926,11.583,6.589,11.583,13.411v43.63c0,8.031-2.188,15.624-5.586,22.162c-2.946,0.593-5.997,1.324-9.008,1.777 L95.813,110.178z"/>
<path fill="#FFFFFF" d="M83.198,37.178c0,15.585-12.64,28.224-28.186,28.224c-15.6,0-28.211-12.639-28.211-28.224v-17.26 c0-5.637,4.568-10.219,10.219-10.219h35.973c5.625,0,10.205,4.583,10.205,10.219V37.178z"/>
<path fill="#FFFFFF" d="M40.147,68.361c0-2.959-2.29-5.198-5.108-5.198c-2.78,0-5.072,2.239-5.072,5.198 c0,2.703,2.292,5.072,5.072,5.072C37.857,73.434,40.147,71.064,40.147,68.361"/>
<path fill="#FFFFFF" d="M75.039,73.434c2.755,0,5.07-2.369,5.07-5.07c0-2.961-2.315-5.199-5.07-5.199 c-2.831,0-5.122,2.238-5.122,5.199C69.917,71.064,72.208,73.434,75.039,73.434"/>
<path fill="#080103" d="M43.043,40.408c0,0.824,0.077,1.57,0.207,2.214c0.128,0.669,0.372,1.223,0.747,1.699 c0.358,0.463,0.836,0.812,1.441,1.081c0.616,0.271,1.376,0.387,2.29,0.387c1.081,0,2.085-0.335,2.947-1.03 c0.861-0.721,1.3-1.828,1.3-3.295c0-0.785-0.129-1.48-0.335-2.084c-0.205-0.542-0.565-1.03-1.029-1.532 c-0.516-0.451-1.185-0.836-1.957-1.249c-0.798-0.374-1.801-0.746-2.984-1.133c-1.584-0.541-2.96-1.106-4.12-1.75 c-1.146-0.63-2.084-1.351-2.87-2.188c-0.784-0.811-1.325-1.802-1.698-2.921c-0.348-1.081-0.554-2.355-0.554-3.809 c0-3.476,0.979-6.088,2.909-7.787c1.944-1.686,4.607-2.548,7.992-2.548c1.584,0,3.025,0.154,4.375,0.501 c1.314,0.36,2.472,0.914,3.438,1.687c0.978,0.772,1.724,1.75,2.264,2.96c0.541,1.184,0.824,2.625,0.824,4.298v1.004h-6.795 c0-1.672-0.31-2.973-0.877-3.887c-0.617-0.901-1.621-1.364-2.973-1.364c-0.784,0-1.453,0.142-1.993,0.334 c-0.515,0.27-0.914,0.566-1.237,0.94c-0.31,0.386-0.54,0.81-0.655,1.3c-0.09,0.515-0.155,1.004-0.155,1.519 c0,1.094,0.22,2.021,0.683,2.742c0.464,0.733,1.455,1.428,2.961,2.059l5.456,2.355c1.364,0.592,2.47,1.236,3.294,1.853 c0.875,0.631,1.545,1.313,2.074,2.06c0.5,0.747,0.86,1.544,1.055,2.471c0.22,0.875,0.297,1.879,0.297,2.908 c0,3.758-1.083,6.449-3.232,8.134c-2.136,1.699-5.134,2.523-8.996,2.523c-4.016,0-6.858-0.85-8.597-2.587 c-1.725-1.763-2.589-4.234-2.589-7.517v-1.428h7.093L43.043,40.408L43.043,40.408z"/>
<rect x="65.23" y="15.144" fill="#080103" width="7.104" height="35.188"/>
</svg>
