<svg xmlns="http://www.w3.org/2000/svg" version="1.1" width="200" height="119.74621">
<g transform="translate(-9.4962349,-159.3022) matrix(7.0497004,0,0,-7.0497004,142.55933,214.04312)">
<path d="m 0,0 1.801,-9.221 -7.229,0 -1.154,5.886 0.004,-0.002 2.453,1.396 -14.75,0 0.244,0.485 4.734,0 4.728,9.221 6.15,0 -1.879,-3.678 -5.601,-3.602 17.802,0 L 7.06,0 0,0 z M 9.495,7.523 1.508,2.18 l -7.404,0 7.99,5.343 7.401,0 z m -18.27,-11.028 -2.918,-5.716 -6.15,0 2.919,5.716 6.149,0 z" fill="#005296"/>
</g>
</svg>
