<svg version="1.1" xmlns="http://www.w3.org/2000/svg" width="450" height="450" viewBox="0 0 450 450">
<path fill="#D4003B" d="M450.428,225.075c0,124.305-100.771,225.068-225.075,225.068S0.28,349.38,0.28,225.075 C0.28,100.771,101.049,0,225.353,0S450.428,100.771,450.428,225.075z"/>
<path fill="#FFFFFF" d="M116.023,232.966c-5.839-2.894-11.945-7.582-18.32-14.07c-6.377-6.485-10.732-12.771-13.066-18.859 c-2.246,7.185-6.22,13.945-11.922,20.281c-5.704,6.338-12.191,11.551-19.465,15.641l-9.43-9.729 c16.344-8.581,26.066-18.56,29.164-29.935c3.098-11.375,4.647-20.005,4.647-25.894v-10.777h14.144v10.777 c0,5.889,1.863,14.294,5.59,25.22c3.726,10.926,12.818,19.832,27.278,26.717L116.023,232.966z M67.259,284.753v-41.011H80.73 v28.438h73.819v12.573H67.259z M138.654,251.375v-95.342h13.471v95.342H138.654z"/>
<path fill="#FFFFFF" d="M235.104,237.007v25.444h-13.605v-25.444h-54.421v-12.573h118.542v12.573H235.104z M182.434,213.059 v-54.931h13.471v14.668h61.021v-14.668h13.337v54.931H182.434z M182.434,284.753v-35.922h13.74v23.349h77.456v12.573H182.434z M256.926,184.92h-61.021v15.566h61.021V184.92z"/>
<path fill="#FFFFFF" d="M353.31,221.216c-7.859,0.748-15.784,1.223-23.776,1.422l-30.578,0.149v-57.924h59.944v12.573h-46.474 v32.778l22.092-0.149c5.567-0.199,12.077-0.622,19.532-1.272c7.453-0.647,13.111-1.321,16.974-2.021v12.273 C367.07,219.745,361.166,220.468,353.31,221.216z M384.292,282.209c-7.59,5.187-18.748,7.783-33.475,7.783 c-14.64,0-25.729-2.597-33.273-7.783c-7.543-5.189-11.314-11.727-11.314-19.607c0-7.982,3.771-14.568,11.314-19.758 c7.544-5.188,18.634-7.783,33.273-7.783c14.727,0,25.885,2.596,33.475,7.783c7.588,5.189,11.383,11.775,11.383,19.758 C395.675,270.482,391.88,277.019,384.292,282.209z M372.707,251.45c-5.523-2.743-12.776-4.116-21.755-4.116 c-9.16,0-16.502,1.373-22.025,4.116c-5.522,2.745-8.284,6.462-8.284,11.151c0,4.588,2.762,8.307,8.284,11.15 c5.523,2.844,12.865,4.266,22.025,4.266c8.979,0,16.231-1.422,21.755-4.266c5.522-2.844,8.284-6.563,8.284-11.15 C380.991,257.912,378.229,254.195,372.707,251.45z M393.52,199.887v33.526h-13.471v-77.381h13.471v31.282h16.568v12.573H393.52z"/>
</svg>
