<svg xmlns="http://www.w3.org/2000/svg" width="600" height="588.59" viewBox="0 0 600 588.59">
<rect width="600" height="588.59" fill="#507697"/>
<path d="M224,444c-91.59,0-154.17-53.9-154.17-145.12,0-88.22,64.48-144.76,150.42-144.76,24.51,0,45.25,1.9,69,10.17l-4.18,49c-20.34-9.43-38-12.81-60.28-12.81-56.56,0-93.89,33.91-93.89,96.89s41.48,98.77,94.62,98.77c20.75,0,40.35-2.27,63-11l1.88,49.4c-17.7,6-41.82,9.41-66.34,9.41" fill="#fff"/>
<polygon points="355.92 156.74 514.64 156.74 514.64 204.62 413.24 204.62 413.24 276.24 509.35 276.24 509.35 322.61 413.24 322.61 413.24 440.97 355.92 440.97 355.92 156.74" fill="#fff"/>
</svg>
