<svg xmlns="http://www.w3.org/2000/svg" version="1.1" width="826.28394" height="401.94272" viewBox="0 0 826.28394 401.94272">
<rect style="fill:#ffffff;stroke:#006cba;stroke-width:44.5;stroke-linejoin:round" rx="89" ry="89" x="22.25" y="22.25" width="355.5" height="355.5"/>
<path d="M 122.566,146.785 H 78.005 v -24.497 h 120.381 v 24.497 h -44.617 v 131.094 h -31.203"/>
<path d="m 301.771,150.792 c -9.775,-4.234 -20.688,-6.735 -31.603,-6.735 -10.687,0 -24.552,4.718 -24.552,21.712 0,26.969 68.259,15.601 68.259,67.72 0,34.156 -26.995,47.115 -58.428,47.115 -16.937,0 -24.554,-2.271 -39.898,-6.078 l 2.843,-28.021 c 10.685,5.799 23.019,9.549 35.293,9.549 11.824,0 27.51,-6.023 27.51,-20.121 0,-29.608 -68.146,-17.334 -68.146,-68.828 0,-34.813 26.997,-47.487 54.508,-47.487 13.299,0 25.689,1.733 37.229,5.569 z"/>
<rect style="fill:#ffffff;stroke:#e61919;stroke-width:44.5;stroke-linejoin:round" rx="89" ry="89" x="448.53394" y="24.192722" width="355.5" height="355.5"/>
<path d="m 559.90492,149.15872 h -44.4 v -24.42 h 119.88 v 24.42 h -44.4 v 130.537 h -31.08 z"/>
<path d="m 692.43792,124.73872 h 31.08 v 154.957 h -31.08 z"/>
</svg>
