<svg xmlns="http://www.w3.org/2000/svg" version="1.1" width="500" height="493.87241">
<path fill="#0070bd" d="M 107.84357,493.87286 C 49.019939,493.87286 4.1873648e-4,446.07907 4.1873648e-4,387.25544 V 106.61789 C 4.1873648e-4,47.794608 49.019939,4.7205712e-4 107.84357,4.7205712e-4 h 284.3137 c 60.04902,0 107.84315,47.79413594288 107.84315,106.61741794288 v 280.63755 c 0,58.82363 -47.79413,106.61742 -107.84315,106.61742 z"/>
<path fill="#fff" d="m 87.010309,139.70638 h 95.588271 c 17.15676,0 30.63703,4.90188 41.66652,13.48027 11.0295,8.57838 15.93138,22.05899 15.93138,40.44113 0,9.80412 -2.45215,19.60788 -7.35299,26.96088 -4.90189,8.57838 -12.25488,13.48026 -20.83327,18.38249 v 0 c 12.25488,3.6765 20.83327,9.80377 26.96088,19.60788 6.12727,8.57838 9.80376,20.83326 9.80376,35.53891 0,8.57873 -1.22434,17.15711 -3.67649,24.51011 -3.6765,6.12726 -7.353,13.48026 -13.48027,18.38214 -6.12761,4.90189 -13.48026,9.80411 -22.05899,12.25488 -9.80377,3.6765 -19.60788,4.90189 -33.08814,4.90189 H 87.010309 Z m 34.313531,89.46066 h 56.37251 c 7.353,0 14.706,-2.45215 19.60788,-7.353 6.12761,-4.90188 8.57838,-12.25488 8.57838,-22.05864 0,-11.0295 -2.45215,-18.3825 -7.35265,-22.05899 -4.90223,-4.90189 -12.25488,-7.353 -20.83361,-7.353 h -56.37251 z m 0,94.36289 h 60.04901 c 11.0295,0 18.38249,-2.45215 24.50976,-8.57838 6.12761,-6.12762 8.57873,-14.706 8.57873,-25.73549 0,-9.80377 -2.45215,-18.38215 -8.57873,-24.50976 -6.12727,-4.90189 -13.48026,-8.57839 -24.50976,-8.57839 h -60.04901 z"/>
<path fill="#fff" d="M 279.41224,354.16696 V 139.70638 h 34.31352 V 322.3042 h 99.26477 v 31.86276 z"/>
</svg>
