<svg xmlns="http://www.w3.org/2000/svg" version="1.1" width="500" height="492.647">
<path d="M 107.84357,492.64701 C 49.019939,492.64701 4.1873648e-4,444.85287 4.1873648e-4,386.02959 V 106.61777 C 4.1873648e-4,47.794135 49.019939,-1.2635201e-6 107.84357,-1.2635201e-6 h 284.3137 C 452.20629,-1.2635201e-6 500.00042,47.794135 500.00042,106.61777 v 279.41182 c 0,58.82328 -47.79413,106.61742 -107.84315,106.61742 z" fill="#f8b61c"/>
<path d="m 250.00025,139.70591 c 15.93138,0 29.41199,2.45215 41.66687,8.57838 12.25488,4.90188 23.28437,13.48026 30.63737,23.28438 8.57838,8.57838 15.93138,20.83326 19.60788,33.08814 4.90188,13.48026 7.35265,26.96087 7.35265,41.66687 0,14.70564 -2.45215,28.18625 -7.35265,41.66652 -3.6765,12.25488 -11.0295,24.50976 -19.60788,34.31387 -7.353,9.80377 -18.38249,17.15676 -30.63737,22.05865 -12.25488,6.12761 -25.73549,8.57838 -41.66687,8.57838 -15.93103,0 -29.41164,-2.45215 -41.66652,-8.57838 -12.25488,-4.90189 -22.05865,-12.25488 -30.63738,-22.05865 -8.57838,-9.80411 -15.93138,-22.05899 -19.60787,-34.31387 -4.90189,-13.48027 -7.35266,-26.96088 -7.35266,-41.66652 0,-14.706 2.45216,-28.18661 7.35266,-41.66687 3.67649,-12.25488 11.02949,-24.50976 19.60787,-33.08814 8.57873,-9.80412 18.3825,-18.3825 30.63738,-23.28438 12.25488,-6.12761 25.73549,-8.57838 41.66652,-8.57838 m 0,28.18626 c -11.02915,0 -20.83326,2.45215 -28.18626,7.35299 -8.57838,3.6765 -14.70565,9.80377 -19.60753,17.15677 -4.90223,7.35299 -8.57873,15.93138 -11.0295,25.73514 -2.45215,8.57873 -3.6765,18.38249 -3.6765,28.18661 0,9.80376 1.22435,19.60753 3.6765,28.18625 2.45215,9.80377 6.12727,18.38215 11.0295,25.73515 4.90188,7.353 11.02915,13.48026 19.60753,17.15676 7.353,4.90223 17.15711,6.12761 28.18626,6.12761 11.02949,0 20.83361,-1.22434 28.1866,-6.12761 8.57838,-3.6765 14.70565,-9.80376 19.60753,-17.15676 4.90223,-7.353 8.57873,-15.93138 11.0295,-25.73515 2.45215,-8.57872 3.6765,-18.38249 3.6765,-28.18625 0,-9.80412 -1.22435,-19.60788 -3.6765,-28.18661 -2.45215,-9.80376 -6.12727,-18.38215 -11.0295,-25.73514 -4.90188,-7.353 -11.02915,-13.48027 -19.60753,-17.15677 -7.35299,-4.90188 -17.15711,-7.35299 -28.1866,-7.35299" fill="#2e2a25"/>
</svg>
