<svg xmlns="http://www.w3.org/2000/svg" version="1.1" width="110" height="110" viewBox="0 0 110 110">
<g transform="translate(-234.98276,157.76705)">
<path d="m 330.77576,-47.619049 -11.232,0 -13.304,-16.663 -32.528,0 -13.214,16.663 -11.308,0 19.93,-24.858 c -2.999,-0.412 -6.048,-1.029 -8.981,-1.633 -3.524,-6.551 -5.597,-14.115 -5.597,-22.146 l 0,-43.611001 c 0,-6.825 5.095,-12.48 11.645,-13.4 l 47.696,0 c 6.497,0.92 11.566,6.575 11.566,13.4 l 0,43.611001 c 0,8.03 -2.174,15.595 -5.584,22.146 -2.92,0.604 -5.982,1.35 -8.993,1.813 l 19.904,24.678 z" style="clip-rule:evenodd;fill:#f7aa2c;fill-opacity:1;fill-rule:evenodd"/>
<path d="m 318.16776,-120.60505 c 0,15.575 -12.622,28.210001 -28.204,28.210001 -15.568,0 -28.204,-12.635001 -28.204,-28.210001 l 0,-17.26 c 0,-5.649 4.556,-10.21 10.218,-10.21 l 35.974,0 c 5.623,0 10.217,4.561 10.217,10.21 l 0,17.26 z" style="clip-rule:evenodd;fill:#ffffff;fill-rule:evenodd"/>
<path d="m 275.14076,-89.436049 c 0,-2.959 -2.316,-5.185 -5.147,-5.185 -2.753,0 -5.03,2.226 -5.03,5.185 0,2.678 2.277,5.069 5.03,5.069 2.831,0 5.147,-2.391 5.147,-5.069" style="clip-rule:evenodd;fill:#ffffff;fill-rule:evenodd" />
<path d="m 309.99776,-84.367049 c 2.778,0 5.055,-2.392 5.055,-5.069 0,-2.959 -2.276,-5.185 -5.055,-5.185 -2.793,0 -5.122,2.226 -5.122,5.185 0,2.678 2.329,5.069 5.122,5.069" style="clip-rule:evenodd;fill:#ffffff;fill-rule:evenodd" />
<path d="m 272.56776,-117.35005 c 0,0.817 0.052,1.57 0.193,2.227 0.128,0.688 0.372,1.229 0.721,1.685 0.373,0.477 0.837,0.792 1.467,1.094 0.605,0.264 1.376,0.385 2.277,0.385 1.106,0 2.058,-0.36 2.934,-1.042 0.888,-0.714 1.312,-1.833 1.312,-3.294 0,-0.791 -0.104,-1.473 -0.296,-2.072 -0.244,-0.553 -0.578,-1.036 -1.094,-1.538 -0.463,-0.463 -1.119,-0.868 -1.931,-1.228 -0.81,-0.38 -1.801,-0.759 -2.984,-1.184 -1.57,-0.515 -2.933,-1.068 -4.079,-1.698 -1.145,-0.643 -2.122,-1.371 -2.869,-2.2 -0.783,-0.817 -1.363,-1.808 -1.697,-2.915 -0.387,-1.081 -0.542,-2.355 -0.542,-3.81 0,-3.474 0.94,-6.085 2.909,-7.784 1.93,-1.698 4.568,-2.567 7.952,-2.567 1.582,0 3.022,0.18 4.36,0.515 1.326,0.354 2.483,0.921 3.462,1.686 0.952,0.76 1.724,1.75 2.265,2.947 0.514,1.203 0.784,2.638 0.784,4.324 l 0,0.991 -6.78,0 c 0,-1.686 -0.295,-2.966 -0.888,-3.874 -0.592,-0.939 -1.569,-1.344 -2.947,-1.344 -0.797,0 -1.441,0.103 -1.98,0.315 -0.526,0.251 -0.953,0.554 -1.235,0.921 -0.31,0.373 -0.515,0.829 -0.67,1.305 -0.103,0.527 -0.154,1.016 -0.154,1.544 0,1.068 0.244,2.001 0.721,2.729 0.411,0.72 1.416,1.421 2.922,2.052 l 5.48,2.335 c 1.325,0.618 2.433,1.235 3.281,1.866 0.849,0.649 1.519,1.306 2.059,2.058 0.489,0.741 0.85,1.538 1.056,2.464 0.179,0.869 0.282,1.859 0.282,2.908 0,3.744 -1.068,6.446 -3.216,8.145 -2.163,1.685 -5.135,2.503 -8.982,2.503 -4.014,0 -6.896,-0.843 -8.595,-2.58 -1.762,-1.757 -2.623,-4.233 -2.623,-7.528 l 0,-1.434 7.127,0 0,1.093 z" style="fill:#080103" />
<g transform="matrix(0.85558068,0,0,0.96498864,186.9995,-157.8558)">
<path d="m 121.35547,15.074219 0,6.964843 9.95508,0 0,30.78125 7.46875,0 0,-30.78125 9.91015,0 0,-6.964843 z" style="color:#000000;" />
</g>
</g>
</svg>
