<svg xmlns="http://www.w3.org/2000/svg" width="600" height="588.57" viewBox="0 0 600 588.57">
<rect width="600" height="588.57" fill="#b14940"/>
<path d="M183.3,443.81c-91.61,0-154.17-53.9-154.17-145.11,0-88.2,64.46-144.76,150.39-144.76,24.52,0,45.23,1.9,69,10.19l-4.16,49C224,203.69,206.29,200.29,184,200.29c-56.52,0-93.85,33.91-93.85,96.87s41.48,98.76,94.62,98.76c20.73,0,40.31-2.27,63-10.92l1.88,49.36c-17.72,6-41.83,9.43-66.34,9.43" fill="#fff"/>
<path d="M447.13,443.81c-87.46,0-151.9-55.4-151.9-146.25,0-88.59,62.56-143.63,161-143.63,28.26,0,55.78,2.64,79.17,10.93l-4.15,50.89c-17.35-9-46-15.84-75.41-15.84-59.92,0-99.12,37.69-99.12,98,0,59.18,35.44,98.37,98,98.37,11.69,0,24.5-1.12,33.54-4.15V321.67H427.54v-45.6h115V428.71c-30.56,10.58-63,15.1-95.4,15.1" fill="#fff"/>
</svg>
