<svg xmlns="http://www.w3.org/2000/svg" width="600" height="588.59" viewBox="0 0 600 588.59">
<rect width="600" height="588.59" fill="#804d83"/>
<path d="M204.6,444.17c-91.6,0-154.16-53.88-154.16-145.11,0-88.23,64.46-144.77,150.38-144.77,24.52,0,45.25,1.88,69,10.19l-4.16,49c-20.36-9.41-38.06-12.79-60.3-12.79-56.56,0-93.87,33.91-93.87,96.89s41.51,98.71,94.63,98.71c20.73,0,40.33-2.25,63-10.91L271,434.76c-17.72,6-41.83,9.41-66.36,9.41" fill="#fff"/>
<path d="M470.73,444.17c-91.61,0-154.17-53.9-154.17-145.12,0-88.22,64.44-144.76,150.44-144.76,24.51,0,45.25,1.88,69,10.19l-4.15,49c-20.38-9.41-38.08-12.79-60.32-12.79-56.56,0-93.87,33.91-93.87,96.89s41.42,98.71,94.57,98.71c20.73,0,40.33-2.25,63-10.91l1.88,49.38c-17.72,6-41.83,9.41-66.34,9.41" fill="#fff"/>
</svg>
