<svg version="1.1" xmlns="http://www.w3.org/2000/svg" viewBox="54.8 0 390.4 500.1">
<path fill="#EF1B1C" d="M66.8,0c8.6,7.4,16,16,24,24c5.6,5.5,11,11.3,16.5,16.9c1.1,1.2,2.1,1.6,3.8,1.3c14.5-2.8,29.2-3.2,43.9-3.5  c13.7-0.3,27.5,0.2,41.2,0.5c2.1,0.1,3.6,0.7,5.1,2.1c3.3,3.2,6.8,6.2,10.6,9.6c-4.6,0.3-8.6,0.6-12.6,0.9  c-20.6,1.9-39.5,8.4-56.4,20.4c-3,2.1-2.9,2.1-0.3,4.7c11.3,11.5,22.6,23.1,33.8,34.7c1.6,1.6,3.2,2.1,5.3,2c7-0.3,14-0.5,21-0.8  c1.9-0.1,3.2,0.5,4.4,2c3.3,4.3,6.8,8.5,10.5,13c-7.4,1.1-14.4,2.1-21.6,3.2c0.4,1.4,1.4,2.1,2.3,2.9c4,4.1,3.9,9-0.1,13  c-3.8,3.8-8.4,3.7-12.5-0.2c-1.4-1.4-2.9-2.8-4.2-4.3c-1.2-1.5-1.8-1.5-2.7,0.3c-3.9,7.3-7.8,14.5-11.8,21.8  c-0.3,0.6-0.8,1.3-1.3,2.2c-3.3-4.2-6.4-8.2-9.5-12.2c-0.6-0.8-0.4-1.6-0.1-2.4c2.7-7.6,5.1-15.2,7.9-22.8c0.9-2.5,0.8-4.2-1.3-6.3  c-11.4-11.3-22.6-22.9-33.6-34.4c-2-2-2.8-1.5-4.4,0.2c-16,18.4-26.1,39.9-31.7,63.5c-0.7,2.9-1.3,5.8-1.9,8.7  c0,0.1-0.1,0.1-0.3,0.2c-1.8-3.3-5.4-3.2-8.4-4.3c-2.2-0.8-3.2-1.4-2.9-4.2c1.7-18.2,3.6-36.3,6.2-54.4c2-13.9,4.1-27.8,8.3-41.2  c0.9-2.9,0.2-4.4-1.7-6.3C80.6,39.1,68.9,27.2,57.3,15.2c-4-4.1-3.2-10.1,1.6-13.6C59.7,1.1,60.7,1,61.1,0C63,0,64.9,0,66.8,0z"/>
<path fill="#EF1B1C" d="M325,450.9c3.3,5.5,7.5,10.4,11.3,15.6c7.8,10.6,15.7,21.1,23.5,31.6c0.3,0.3,0.5,0.8,0.8,1.2  c-0.7,1-1.6,0.6-2.4,0.6c-11.9,0.1-23.8,0-35.8,0.1c-1.8,0-2.9-0.6-4-2.1c-10.7-13.3-21.5-26.6-32.3-39.8c-0.8-0.9-1.3-2.1-2.6-2.6  c-1.2-2.9-3-4.7-6.5-4.3c-2.5,0.3-5.2,0.1-7.7,0.1c-9.2,0.1-18.4,0.1-27.6,0.2c-2.1-0.6-4.4-0.3-6.6-0.3c-9.4-0.1-18.6,0.1-28-0.1  c-2.1,0-3.5,0.7-4.9,2.3c-13.1,14.9-26.3,29.9-39.4,44.8c-0.9,1-1.7,1.9-3.3,1.9c-12.8-0.1-25.6-0.1-38.4-0.1  c-0.3,0-0.7-0.1-1.7-0.2c13.2-16.4,26.1-32.6,39.3-48.9c-5.1-1-9.7-2.2-14-4.4c-16-8.6-24.9-21.9-24.9-40.2  c-0.2-55.1-0.1-110.2-0.1-165.4c0-24.1,19.5-45.2,46-45.2c52.1,0.1,104.1,0.1,156.1,0.1c4.4,1,8.8,2,12.9,3.9  c14.1,6.6,22.7,17.4,26.1,32.6c0.9,4.3,0.5,8.6,1.2,12.9c-0.5,1-0.3,2.1-0.3,3.1c0,29.5,0,58.9,0,88.4c0,1.2,0.1,2.3,0.2,3.4  c-0.1,1.3-0.1,2.7-0.1,4c0,20.3,0,40.6,0,60.8c0,3.2-0.2,6.3-0.9,9.4c-3.5,16.4-13,27.6-28.5,33.9C330,449.2,327.2,449.2,325,450.9z   M203.3,245.4c-0.6-0.1-1.3-0.2-2-0.2c-12.4,0-24.8,0-37.2,0c-14.3,0-23.8,9.6-23.8,23.9c-0.1,15.9-0.1,31.7,0,47.6  c0,13.4,9.9,23.3,23.3,23.3c11.9,0,23.8,0,35.7,0c1.3,0,2.7,0.2,3.9-0.3c0.3,0.1,0.8,0.3,1.1,0.3c11.5,0,22.9,0.1,34.4,0  c0.8,0,1.7-0.3,2.5-0.5c1.2,0.2,2.5,0.5,3.7,0.5c24.7,0,49.4,0.1,74.1-0.1c12.6-0.1,22.1-9.9,22.2-22.5c0.1-16.2,0.1-32.5,0-48.7  c-0.1-14.1-9.5-23.4-23.6-23.4c-23.5-0.1-47.1-0.1-70.6,0c-1.8,0-3.6-0.1-5.4,0.4c-1.2-0.6-2.4-0.6-3.6-0.6c-10.7,0-21.4,0-32.1,0  C204.9,245,204,244.9,203.3,245.4z M311.7,426c11.1,0.2,20.2-8.5,20.5-19.7c0.3-11.1-8.6-20.5-19.6-20.7c-11.3-0.3-21,8.7-21,19.9  C291.6,416.7,300.6,426.1,311.7,426z M187.5,405.8c0.1-11.1-8.8-20.1-20-20.3c-11.1-0.1-20.3,8.8-20.4,19.9  c-0.2,11.2,8.8,20.4,20.1,20.5C178.5,426.1,187.4,417.2,187.5,405.8z"/>
<path fill="#0074BF" d="M325,450.9c2.1-1.7,5-1.7,7.4-2.7c15.5-6.3,25-17.5,28.5-33.9c0.7-3.1,0.9-6.2,0.9-9.4c0-20.3,0-40.6,0-60.8  c0-1.3,0.1-2.7,0.1-4c12.9,0,25.8-0.4,38.7,0.1c12.6,0.5,24.4-9.5,24.1-24.1c-0.3-15.9-0.1-31.7-0.1-47.6c0-2.3-0.2-4.4-0.8-6.5  c-2.9-10.2-11.4-16.6-22.2-16.6c-13.2-0.1-26.3-0.1-39.5-0.2c-0.6-4.3-0.2-8.6-1.2-12.9c-3.3-15.2-12.1-26-26.1-32.6  c-4.1-1.9-8.5-2.9-12.9-3.9c26,0,51.9-0.4,77.9,0c26.2,0.4,45.1,19.6,45.2,45.8c0.2,54.7,0.2,109.5,0,164.2  c-0.1,22.1-14.2,39.2-35.7,44.4c-0.5,0.1-0.9,0.2-1.7,0.4c12.2,16.4,24.3,32.7,36.4,48.9c-1,0.8-2,0.5-2.9,0.5  c-11.7,0-23.3-0.1-34.9,0.1c-2.1,0-3.5-0.6-4.8-2.3c-11.9-14.8-23.9-29.6-35.8-44.4c-1.3-1.6-2.5-2.3-4.6-2.2  c-11.4,0.2-22.7,0.2-34.1,0.2C326.3,451.3,325.7,451.1,325,450.9z M415.5,406c0.1-11-8.8-20.3-19.6-20.4  c-11.5-0.1-20.8,8.7-20.8,19.7c-0.1,11.5,8.8,20.6,20.2,20.7C406.3,426.1,415.4,417.1,415.5,406z"/>
<path fill="#0074BF" d="M241.7,451.4c9.2-0.1,18.4-0.2,27.6-0.2c2.6,0,5.2,0.2,7.7-0.1c3.5-0.3,5.3,1.4,6.5,4.3  c-8.4,9.6-16.8,19.2-25.2,28.8c-4.1,4.7-8.2,9.4-12.4,14.1c-0.7,0.8-1.3,1.6-2.5,1.6c-13.3-0.1-26.7,0-40.7,0  C216,483.4,228.8,467.4,241.7,451.4z"/>
<path fill="#0074BF" d="M304.8,152.8c7.8,0,13.8,6.1,13.8,13.9c-0.1,7.3-6.2,13.4-13.7,13.4c-7.7,0-13.5-6-13.6-13.8  C291.4,158.8,297.3,152.8,304.8,152.8z"/>
<path fill="#EF1B1C" d="M221.4,180.1c-7.6-0.1-13.6-6.2-13.4-13.9c0.1-7.6,6.2-13.4,14-13.3c7.4,0.1,13.4,6.2,13.3,13.7  C235.1,174.1,229,180.1,221.4,180.1z"/>
<path fill="#0074BF" d="M345.6,152.8c7.7,0,13.8,5.9,13.8,13.6c0,7.5-6.2,13.7-13.7,13.7c-7.5-0.1-13.7-6.2-13.6-13.5  C332,158.8,337.9,152.9,345.6,152.8z"/>
<path fill="#EF1B1C" d="M275.9,166.5c-0.1,7.8-6.1,13.7-14,13.6c-7.5-0.1-13.3-6.3-13.2-14.1c0.1-7.4,6.2-13.2,13.9-13.1  C270.1,152.9,276,159,275.9,166.5z"/>
<path fill="#0074BF" d="M203.2,339.6c-0.1-5.7-0.1-11.3-0.1-17c0-24.4,0-48.8,0-73.2c0-1.3,0.1-2.7,0.1-4c0.8-0.5,1.6-0.4,2.5-0.4  c10.7,0,21.4,0,32.1,0c1.3,0,2.5,0.1,3.6,0.6c-11.3,3-17.7,11.3-17.8,22.7c-0.1,15.9-0.1,31.7,0,47.6c0,12.2,5.8,19.9,17.5,23.6  c-0.9,0.2-1.7,0.5-2.5,0.5c-11.5,0-22.9,0-34.4,0C204,340,203.6,339.7,203.2,339.6z"/>
<path fill="#0074BF" d="M311.7,426c-11.1,0.1-20.1-9.3-20.1-20.5c0.1-11.3,9.7-20.2,21-19.9c11,0.2,19.9,9.7,19.6,20.7  C331.9,417.5,322.8,426.2,311.7,426z"/>
</svg>
