<svg version="1.1" xmlns="http://www.w3.org/2000/svg" width="450" height="450" viewBox="0 0 450 450">
<path fill="#6E98BB" d="M449.817,224.91c0,124.213-100.69,224.904-224.907,224.904C100.696,449.814,0,349.124,0,224.91 C0,100.698,100.696,0,224.909,0C349.126,0,449.817,100.698,449.817,224.91z"/>
<path fill="#FFF" d="M344,254.264v-96.309l-21.161,19.55v-18.108L344,140.168h15.528v114.097H344z"/>
<path fill="#FFF" d="M52.499,337.594V294.49h5.884v43.104H52.499z"/>
<path fill="#FFF" d="M84.699,337.594v-18.707c0-2.38-0.537-4.115-1.607-5.205c-1.072-1.09-2.389-1.635-3.95-1.635 c-1.562,0-2.906,0.555-4.032,1.664c-1.126,1.111-1.689,2.836-1.689,5.176v18.707h-5.558V306.9h5.449v3.088 c0.944-1.17,2.061-2.037,3.351-2.604c1.289-0.564,2.624-0.848,4.005-0.848c1.417,0,2.697,0.242,3.841,0.727s2.133,1.172,2.97,2.059 c1.053,1.172,1.779,2.473,2.179,3.904c0.399,1.434,0.599,3.018,0.599,4.753v19.614H84.699z"/>
<path fill="#FFF" d="M114.72,336.927c-1.417,0.686-3.088,1.029-5.013,1.029c-1.562,0-3.078-0.283-4.549-0.848 s-2.779-1.473-3.923-2.725c-1.144-1.25-2.07-2.875-2.779-4.873s-1.063-4.429-1.063-7.295c0-2.865,0.354-5.297,1.063-7.295 s1.635-3.611,2.779-4.843c1.144-1.23,2.452-2.128,3.923-2.694c1.471-0.564,2.987-0.848,4.549-0.848c1.925,0,3.596,0.334,5.013,1 s2.779,1.766,4.086,3.299l-3.814,4.117c-0.872-1.05-1.699-1.796-2.479-2.24c-0.782-0.443-1.716-0.666-2.806-0.666 c-2.179,0-3.887,0.908-5.122,2.725c-0.618,0.847-1.044,1.846-1.28,2.996c-0.237,1.15-0.354,2.633-0.354,4.449 s0.117,3.311,0.354,4.48c0.236,1.17,0.662,2.18,1.28,3.026c1.234,1.816,2.942,2.725,5.122,2.725c1.09,0,2.024-0.222,2.806-0.666 c0.78-0.444,1.607-1.19,2.479-2.24l3.814,4.056C117.499,335.133,116.136,336.242,114.72,336.927z"/>
<path fill="#FFF" d="M141.961,337.594v-18.827c0-2.341-0.537-4.046-1.607-5.116c-1.072-1.068-2.389-1.604-3.95-1.604 c-1.562,0-2.888,0.545-3.978,1.635c-1.089,1.09-1.634,2.784-1.634,5.085v18.827h-5.558V294.49h5.558v15.498 c0.944-1.17,2.024-2.037,3.242-2.604c1.217-0.564,2.515-0.848,3.896-0.848c1.526,0,2.888,0.273,4.086,0.818s2.207,1.312,3.024,2.3 c0.817,0.989,1.435,2.18,1.853,3.571c0.417,1.393,0.626,2.917,0.626,4.571v19.796H141.961z"/>
<path fill="#FFF" d="M160.213,324.033c0,2.664,0.599,4.763,1.798,6.296c1.199,1.534,2.942,2.3,5.23,2.3 c1.562,0,2.824-0.251,3.787-0.756c0.962-0.504,1.934-1.302,2.915-2.392l3.542,3.692c-0.727,0.809-1.444,1.504-2.152,2.09 c-0.708,0.585-1.471,1.08-2.288,1.482c-0.817,0.404-1.708,0.707-2.67,0.908c-0.963,0.201-2.043,0.303-3.242,0.303 c-1.744,0-3.37-0.272-4.878-0.817c-1.509-0.545-2.821-1.433-3.94-2.663s-2.008-2.855-2.669-4.874 c-0.661-2.018-0.99-4.479-0.99-7.386c0-5.004,1.071-8.869,3.215-11.593c2.143-2.724,4.994-4.087,8.554-4.087 c1.853,0,3.505,0.363,4.958,1.09c1.453,0.727,2.678,1.736,3.678,3.027c0.999,1.292,1.762,2.846,2.289,4.662 c0.526,1.815,0.79,3.813,0.79,5.992v2.725H160.213z M172.444,317.465c-0.091-0.584-0.282-1.221-0.572-1.907 c-0.436-1.17-1.126-2.108-2.071-2.815c-0.945-0.705-2.07-1.059-3.378-1.059s-2.443,0.354-3.405,1.059 c-0.963,0.707-1.662,1.646-2.098,2.815c-0.291,0.687-0.472,1.323-0.545,1.907c-0.073,0.586-0.127,1.342-0.163,2.27h12.422 C172.599,318.806,172.535,318.051,172.444,317.465z"/>
<path fill="#FFF" d="M206.523,329.088c-0.436,1.959-1.308,3.703-2.615,5.236c-0.908,1.051-2.043,1.918-3.405,2.604 c-1.362,0.686-2.988,1.029-4.876,1.029c-1.889,0-3.506-0.344-4.849-1.029c-1.344-0.686-2.471-1.553-3.378-2.604 c-1.308-1.533-2.179-3.277-2.615-5.236c-0.436-1.957-0.654-4.247-0.654-6.871c0-2.582,0.218-4.852,0.654-6.811 c0.436-1.957,1.308-3.702,2.615-5.236c0.908-1.049,2.034-1.916,3.378-2.604c1.343-0.686,2.96-1.029,4.849-1.029 c1.888,0,3.514,0.344,4.876,1.029c1.362,0.688,2.497,1.555,3.405,2.604c1.308,1.534,2.18,3.279,2.615,5.236 c0.436,1.959,0.654,4.229,0.654,6.811C207.177,324.841,206.959,327.131,206.523,329.088z M201.293,317.434 c-0.218-1.493-0.745-2.704-1.58-3.632c-1.054-1.17-2.416-1.756-4.086-1.756c-1.635,0-2.979,0.586-4.032,1.756 c-0.836,0.928-1.362,2.139-1.58,3.632c-0.218,1.493-0.327,3.087-0.327,4.782s0.109,3.29,0.327,4.783 c0.218,1.493,0.744,2.704,1.58,3.632c1.09,1.211,2.433,1.816,4.032,1.816c1.634,0,2.997-0.605,4.086-1.816 c0.835-0.928,1.362-2.139,1.58-3.632c0.218-1.493,0.327-3.088,0.327-4.783S201.511,318.927,201.293,317.434z"/>
<path fill="#FFF" d="M231.531,337.594v-18.707c0-2.38-0.536-4.115-1.607-5.205s-2.389-1.635-3.95-1.635 c-1.562,0-2.906,0.555-4.032,1.664c-1.126,1.111-1.689,2.836-1.689,5.176v18.707h-5.558V306.9h5.449v3.088 c0.944-1.17,2.061-2.037,3.351-2.604c1.289-0.564,2.625-0.848,4.005-0.848c1.416,0,2.696,0.242,3.841,0.727 c1.144,0.484,2.133,1.172,2.97,2.059c1.053,1.172,1.778,2.473,2.179,3.904c0.399,1.434,0.6,3.018,0.6,4.753v19.614H231.531z"/>
<path fill="#FFF" d="M259.372,337.594V294.49h5.884v37.231h18.688v5.872H259.372z"/>
<path fill="#FFF" d="M289.829,300.847v-6.539h5.884v6.539H289.829z M289.992,337.594V306.9h5.558v30.693H289.992z"/>
<path fill="#FFF" d="M321.211,337.594v-18.707c0-2.38-0.536-4.115-1.607-5.205c-1.072-1.09-2.389-1.635-3.95-1.635 c-1.563,0-2.906,0.555-4.032,1.664c-1.126,1.111-1.688,2.836-1.688,5.176v18.707h-5.558V306.9h5.448v3.088 c0.944-1.17,2.062-2.037,3.352-2.604c1.288-0.564,2.623-0.848,4.004-0.848c1.417,0,2.697,0.242,3.842,0.727 c1.144,0.484,2.133,1.172,2.969,2.059c1.054,1.172,1.779,2.473,2.18,3.904c0.399,1.434,0.6,3.018,0.6,4.753v19.614H321.211z"/>
<path fill="#FFF" d="M339.462,324.033c0,2.664,0.6,4.763,1.798,6.296c1.199,1.534,2.942,2.3,5.231,2.3 c1.561,0,2.823-0.251,3.786-0.756c0.962-0.504,1.935-1.302,2.915-2.392l3.541,3.692c-0.727,0.809-1.443,1.504-2.151,2.09 c-0.709,0.585-1.472,1.08-2.289,1.482c-0.817,0.404-1.707,0.707-2.669,0.908c-0.963,0.201-2.044,0.303-3.242,0.303 c-1.743,0-3.369-0.272-4.878-0.817s-2.821-1.433-3.94-2.663c-1.118-1.23-2.008-2.855-2.669-4.874 c-0.66-2.018-0.989-4.479-0.989-7.386c0-5.004,1.07-8.869,3.214-11.593c2.143-2.724,4.994-4.087,8.555-4.087 c1.853,0,3.505,0.363,4.958,1.09c1.452,0.727,2.678,1.736,3.678,3.027c0.998,1.292,1.761,2.846,2.288,4.662 c0.526,1.815,0.79,3.813,0.79,5.992v2.725H339.462z M351.694,317.465c-0.092-0.584-0.282-1.221-0.572-1.907 c-0.437-1.17-1.126-2.108-2.07-2.815c-0.945-0.705-2.07-1.059-3.378-1.059s-2.443,0.354-3.405,1.059 c-0.963,0.707-1.662,1.646-2.098,2.815c-0.291,0.687-0.473,1.323-0.545,1.907c-0.073,0.586-0.128,1.342-0.164,2.27h12.423 C351.848,318.806,351.784,318.051,351.694,317.465z"/>
<path fill="#FFF" d="M387.135,337.594v-36.383l-7.573,7.385v-6.84l7.573-7.266h5.558v43.104H387.135z"/>
<path fill="#FFF" d="M122.401,152.298c5.791,6.159,8.687,13.541,8.687,22.152c0,8.61-2.896,15.971-8.687,22.082 c-5.793,6.111-13.146,9.166-22.062,9.166c-8.917,0-16.249-3.055-21.999-9.166c-5.75-6.111-8.625-13.472-8.625-22.082 c0-8.611,2.875-15.993,8.625-22.152c5.75-6.156,13.082-9.235,21.999-9.235C109.255,143.062,116.608,146.141,122.401,152.298z M88.652,162.228c-2.709,3.426-4.062,7.5-4.062,12.222c0,4.631,1.353,8.658,4.062,12.083c2.707,3.427,6.603,5.139,11.687,5.139 c5.166,0,9.103-1.712,11.812-5.139c2.707-3.424,4.062-7.452,4.062-12.083c0-4.722-1.355-8.795-4.062-12.222 c-2.709-3.424-6.646-5.139-11.812-5.139C95.255,157.089,91.359,158.803,88.652,162.228z M85.84,258.751v-39.165h15.125v25.138 h67.997v14.027H85.84z M151.961,227.64v-88.328h14.5v88.328H151.961z"/>
<path fill="#FFF" d="M247.456,213.892c-1.749-0.556-4.229-1.597-7.437-3.125c-3.209-1.528-6.563-3.68-10.063-6.458 c-2.334-1.851-4.583-3.934-6.75-6.25c-2.168-2.313-3.709-4.212-4.625-5.694c-0.584,1.298-1.98,3.357-4.188,6.18 c-2.209,2.826-4.855,5.486-7.937,7.986c-3.334,2.778-6.437,5.023-9.312,6.736c-2.875,1.714-5.355,3.034-7.437,3.958l-9.625-12.083 c2.666-0.833,5.603-2.198,8.812-4.097c3.207-1.896,6.519-4.281,9.937-7.152c3.416-2.869,6.228-6.132,8.437-9.791 c2.207-3.657,3.478-7.292,3.812-10.902h-22.749v-13.472h60.497v13.472h-22.874c0.416,3.333,1.563,6.506,3.438,9.513 c1.875,3.01,4.313,5.857,7.313,8.542c3.166,2.777,6.457,5.047,9.875,6.805c3.415,1.76,6.165,2.964,8.249,3.611L247.456,213.892z M200.458,152.506v-13.055h36.749v13.055H200.458z M202.708,258.751v-38.609h14.5v24.582h67.996v14.027H202.708z M268.205,228.058 v-36.943h-19.749v-14.027h19.749v-37.776h14.5v88.746H268.205z"/>
</svg>
