<svg width="170" height="170" viewBox="0 0 170 170" version="1.1" xmlns="http://www.w3.org/2000/svg">
<rect fill="#F2D01F" rx="19.75" ry="19.75" width="170" height="170"/>
<rect fill="#FFF" x="19" y="19" width="132" height="132"/>
<path d="M59.104,121.028 C57.541,121.028 55.953,120.943 54.386,120.779 52.812,120.611 51.259,120.359 49.766,120.028 L48.839,119.823 V108.657 L50.412,109.207 C51.463,109.573 52.493,109.853 53.475,110.035 54.443,110.216 55.475,110.307 56.546,110.307 60.231,110.307 62.795,109.151 64.384,106.777 66.052,104.284 66.898,99.986 66.898,94.002 L66.898,49.052 H79.756 V96.09 C79.756,104.493 78.087,110.801 74.792,114.835 71.439,118.944 66.16,121.028 59.104,121.028"/>
<rect x="98.971" y="49.051" width="12.751" height="71.393"/>
</svg>
