<svg width="170px" height="170px" viewBox="0 0 170 170" version="1.1" xmlns="http://www.w3.org/2000/svg">
<rect fill="#1DAED1" rx="19.75" ry="19.75" width="170" height="170"/>
<rect fill="#FFF" x="19" y="19" width="132" height="132"/>
<path d="M48.037,118.351 C46.511,118.351 44.958,118.267 43.423,118.103 41.878,117.937 40.357,117.687 38.903,117.361 L38,117.156 V106.117 L39.542,106.662 C40.577,107.025 41.584,107.303 42.537,107.482 43.479,107.662 44.489,107.752 45.537,107.752 49.136,107.752 51.642,106.606 53.196,104.25 54.829,101.771 55.658,97.502 55.658,91.564 L55.658,47 H68.231 V93.634 C68.231,101.962 66.6,108.212 63.383,112.21 60.102,116.287 54.94,118.351 48.037,118.351"/>
<path d="M116.517,117.772 L88.716,86.243 V117.772 H77 V47 H88.716 V75.263 L114.832,47 129.316,47 98.013,80.12 131.721,117.772"/>
</svg>
