<svg width="170" height="170" viewBox="0 0 170 170" version="1.1" xmlns="http://www.w3.org/2000/svg">
<rect fill="#B1CB39" rx="19.75" ry="19.75" width="170" height="170"/>
<rect fill="#FFF" x="18.592" y="18.591" width="132.895" height="132.896"/>
<path d="M44.383,120.193 C42.844,120.193 41.277,120.111 39.727,119.95 38.168,119.787 36.633,119.54 35.166,119.217 L34.249,119.016 V108.089 35.799,108.624 C36.838,108.982 37.856,109.255 38.823,109.434 39.779,109.61 40.8,109.7 41.858,109.7 45.498,109.7 48.03,108.571 49.598,106.252 51.243,103.821 52.077,99.629 52.077,93.79 L52.077,49.885 H64.772 V95.83 C64.772,104.042 63.122,110.203 59.867,114.148 56.557,118.159 51.347,120.193 44.383,120.193"/>
<path d="M95.091,119.623 V91.113 L67.269,49.885 H82.166 L101.783,80.811 121.8,49.885 H135.83 L107.784,90.925 V119.623"/>
</svg>
