<svg xmlns="http://www.w3.org/2000/svg" width="600" height="588.57" viewBox="0 0 600 588.57">
<rect width="600" height="588.57" fill="#865b4a"/>
<path d="M212.59,443.47c-93.39,0-157.18-53.9-157.18-145.11,0-88.22,65.72-144.76,153.34-144.76,25,0,46.12,1.88,70.32,10.17l-4.22,49C254.1,203.34,236,200,213.35,200c-57.64,0-95.68,33.91-95.68,96.88s42.26,98.74,96.44,98.74c21.16,0,41.14-2.25,64.19-10.93L280.21,434c-18,6-42.65,9.43-67.63,9.43" fill="#fff"/>
<polygon points="347.04 156.23 518.45 156.23 518.45 203.35 404.7 203.35 404.7 271.95 509.22 271.95 509.22 317.95 404.7 317.95 404.7 392.95 519.6 392.95 519.6 440.45 347.04 440.45 347.04 156.23" fill="#fff"/>
</svg>
