<svg width="400" height="400" version="1.1" viewBox="0 0 400 400" xmlns="http://www.w3.org/2000/svg">
<rect width="400" height="400" rx="30" ry="30"/>
<path d="m167.82 19.66c-25.364 0.11172-50.517 2.6552-74.641 18.52-33.18 21.82-53.18 181.82-54.18 211.82-1.9992 59.975 32.111 106.28 32.111 106.28l18.771 16.574s1.6753 0.12269 1.998 0.14844c-4.6651-36.255-2.0214-71.34 18.119-92.998 23.214-23.214 57.17-40 90-40s66.786 16.786 90 40c19.396 23.698 23.961 58.243 20.621 92.404l18.268-16.129s34.11-46.3 32.111-106.28c-1-30-21-190-54.18-211.82-27.072-17.803-70.702-18.18-106.82-18.18-9.0296 0-18.077-0.27373-27.104-0.33203-1.6926-0.01093-3.3852-0.01527-5.0762-0.0078zm1.2168 6.75c1.627-0.0071 3.2542-0.0047 4.8828 0.0059 8.686 0.0561 17.392 0.32031 26.08 0.32031 34.754 0 76.736 0.36182 102.79 17.492 6.4914 4.2689 12.45 14.073 17.844 27.17 2.2512 4.8072 3.8133 12.174 4.3711 18.602-7e-3 1.4149-0.0861 2.8262-0.23633 4.2188l-14.764-4.2188c-9e-3 12.553-5.6028 23.148-13.072 24.762-30.926 2.0908-63.764 3.1879-96.928 3.2383-33.148-0.04871-65.973-1.1431-96.891-3.2305-7.4861-1.5852-13.1-12.193-13.109-24.77l-14.766 4.2188c-0.1496-1.3927-0.22798-2.804-0.23438-4.2188 0.058941-5.7073 2.4694-12.477 4.3711-18.604 5.3935-13.096 11.353-22.899 17.844-27.168 23.213-15.265 47.416-17.711 71.822-17.818zm27.312 99.084a4 16 0 0 0 3.6504 9.5059 4 16 0 0 0 3.6504-9.4941 4 16 0 0 1 0.34961 6.4941 4 16 0 0 1-0.43945 7.2422 25 22.5 0 0 0 16.223-8.5312 22.5 22.5 0 0 1-16.717 11.553 4 16 0 0 1-3.0664 5.7363 4 16 0 0 1-3.0625-5.7363 22.5 22.5 0 0 1-16.596-11.371 25 22.5 0 0 0 16.092 8.3476 4 16 0 0 1-0.43359-7.2402 4 16 0 0 1 0.34961-6.5059zm-79.219 13.426c2.9309-0.0145 6.0167 0.65911 7.2637 1.875 5.6528 5.5119 12.062 21.082 18.939 32.955 4.1642 7.1889 6.6384 21.892 7.5 29.166 0.81939 6.9183 1.6388 17.243-1.668 20.834-3.2454 3.5243-32.471 4.4561-34.166 0-4.0204-10.569-6.9702-29.802-7.5-45-0.45694-13.107 2.0409-34.508 3.2949-37.576 0.62806-1.5365 3.4051-2.2394 6.3359-2.2539zm165.74 0c2.9309 0.0145 5.7079 0.71737 6.3359 2.2539 1.254 3.0679 3.7519 24.469 3.2949 37.576-0.52982 15.198-3.4796 34.431-7.5 45-1.6951 4.4561-30.921 3.5243-34.166 0-3.3067-3.5909-2.4874-13.916-1.668-20.834 0.86155-7.2742 3.3358-21.977 7.5-29.166 6.8775-11.873 13.287-27.443 18.939-32.955 1.247-1.2159 4.3328-1.8895 7.2637-1.875zm-162.87 6.1035a7.25 7.25 0 0 0-7.25 7.25 7.25 7.25 0 0 0 7.25 7.25 7.25 7.25 0 0 0 7.25-7.25 7.25 7.25 0 0 0-7.25-7.25zm160 0a7.25 7.25 0 0 0-7.25 7.25 7.25 7.25 0 0 0 7.25 7.25 7.25 7.25 0 0 0 7.25-7.25 7.25 7.25 0 0 0-7.25-7.25zm-152.27 29.25a8 8 0 0 0-8 8 8 8 0 0 0 8 8 8 8 0 0 0 8-8 8 8 0 0 0-8-8zm144.55 0a8 8 0 0 0-8 8 8 8 0 0 0 8 8 8 8 0 0 0 8-8 8 8 0 0 0-8-8zm-139.32 30.363a9 9 0 0 0-9 9 9 9 0 0 0 9 9 9 9 0 0 0 9-9 9 9 0 0 0-9-9zm134.09 0a9 9 0 0 0-9 9 9 9 0 0 0 9 9 9 9 0 0 0 9-9 9 9 0 0 0-9-9zm-220.36 23.363h23.652l6.666 10h-31.264c0.24832-2.9673 0.56431-6.317 0.94531-10zm282.98 0h23.652c0.381 3.683 0.69699 7.0327 0.94531 10h-31.264zm-131.17 14.865c-31.466 0.50732-63.817 16.667-86.045 38.895-19.778 21.268-22.216 55.844-17.502 91.465 11.632 0.87274 52.935 3.7108 103.55 3.7695zm3 0v134.13c54.851-0.0636 99.345-3.4252 106.01-3.9512 3.5101-33.685-0.79515-67.907-19.928-91.283-22.238-22.238-54.606-38.401-86.086-38.895zm-66.5 91.135h50c2.77 0 5 2.007 5 4.5s-2.23 4.5-5 4.5h-50c-2.77 0-5-2.007-5-4.5s2.23-4.5 5-4.5zm80 0h50c2.77 0 5 2.007 5 4.5s-2.23 4.5-5 4.5h-50c-2.77 0-5-2.007-5-4.5s2.23-4.5 5-4.5z" fill="#fff"/>
</svg>
