<svg xmlns="http://www.w3.org/2000/svg" version="1.1" width="42.7015" height="42.156086">
<g transform="matrix(1.25,0,0,-1.25,-152.7972,177.73145)">
<path d="M 0,595.276 H 841.89 V 0 H 0 Z"/>
<g transform="translate(143.56696,134.12329)">
<path style="fill:#2b78c6;fill-opacity:1;fill-rule:nonzero;stroke:none" d="m 0,0 c -1.487,0 -2.918,-0.255 -4.248,-0.725 -2.241,-0.788 -4.199,-2.18 -5.677,-3.984 -1.816,-2.215 -2.906,-5.042 -2.906,-8.124 0,-3.077 1.09,-5.907 2.906,-8.122 0.464,-0.081 0.94,-0.128 1.426,-0.128 1.555,0 3.008,0.435 4.251,1.183 -2.398,1.445 -4.002,4.072 -4.002,7.067 0,2.996 1.604,5.623 4.002,7.072 1.241,0.748 2.695,1.18 4.248,1.18 0.487,0 0.963,-0.045 1.426,-0.128 3.872,-0.677 6.824,-4.059 6.824,-8.124 0,-4.061 -2.952,-7.443 -6.824,-8.122 -1.477,-1.801 -3.435,-3.196 -5.674,-3.984 1.33,-0.47 2.761,-0.724 4.248,-0.724 7.076,0 12.832,5.755 12.832,12.83 C 12.832,-5.756 7.076,0 0,0" />
</g>
<g transform="translate(144.99276,129.4143)">
<path style="fill:#59caf5;fill-opacity:1;fill-rule:nonzero;stroke:none" d="m 0,0 c -0.463,0.083 -0.938,0.128 -1.426,0.128 -1.553,0 -3.007,-0.432 -4.248,-1.18 2.395,-1.449 4.001,-4.076 4.001,-7.072 0.001,-2.995 -1.606,-5.622 -4.001,-7.067 -1.243,-0.748 -2.696,-1.183 -4.251,-1.183 -0.486,0 -0.962,0.047 -1.426,0.128 -3.872,0.679 -6.824,4.061 -6.824,8.122 0,4.065 2.952,7.447 6.824,8.124 1.478,1.804 3.436,3.196 5.677,3.984 -1.332,0.47 -2.761,0.725 -4.251,0.725 -7.075,0 -12.83,-5.756 -12.83,-12.833 0,-7.075 5.755,-12.832 12.83,-12.83 1.49,0 2.919,0.254 4.251,0.724 2.239,0.788 4.197,2.183 5.674,3.984 1.817,2.215 2.908,5.042 2.908,8.122 C 2.908,-5.042 1.817,-2.215 0,0" />
</g>
<g transform="translate(150.39796,141.34309)">
<path style="fill:#4dbe4b;fill-opacity:1;fill-rule:nonzero;stroke:none" d="m 0,0 c -0.453,1.223 -3.802,1.098 -7.473,-0.272 -1.39,-0.519 -2.627,-1.141 -3.604,-1.783 -0.976,0.642 -2.212,1.26 -3.601,1.783 -3.673,1.369 -7.019,1.495 -7.475,0.272 -0.455,-1.219 2.154,-3.319 5.827,-4.69 2.002,-0.748 4.123,-1.125 5.254,-1.125 1.131,0 3.388,0.431 5.247,1.126 C -2.151,-3.319 0.457,-1.217 0,0" />
</g>
</g>
</svg>
