<svg width="170" height="170" viewBox="0 0 170 170" version="1.1" xmlns="http://www.w3.org/2000/svg">
<rect fill="#B1CB39" rx="19.75" ry="19.75" width="170" height="170"/>
<rect fill="#FFF" x="19" y="19" width="132" height="132"/>
<path d="M48.491,120.981 C46.945,120.981 45.383,120.898 43.848,120.732 42.301,120.567 40.77,120.314 39.3,119.983 L38.392,119.778 V108.656 L39.945,109.207 C40.981,109.574 41.994,109.852 42.956,110.034 43.91,110.215 44.925,110.306 45.975,110.306 49.596,110.306 52.117,109.152 53.681,106.778 55.325,104.282 56.159,99.981 56.159,93.995 L56.159,49.098 H68.81 V96.082 C68.81,104.472 67.168,110.767 63.931,114.794 60.631,118.9 55.437,120.981 48.491,120.981"/>
<path d="M119.455,120.399 V88.508 H89.674 V120.399 H77.439 V49.098 H89.674 V78.318 H119.455 V49.098 H131.687 V120.399"/>
</svg>
