<svg xmlns="http://www.w3.org/2000/svg" width="171.25781" height="171.79297" viewBox="0 0 171.25781 171.79297" version="1.1">
<g transform="translate(-220.39063,-313.03906)">
<path fill="#3a59a8" d="m 318.01172,382.92187 h 73.63672 v -15.47656 h -45.87891 c -17.07031,0 -27.75781,15.47656 -27.75781,15.47656"/>
<path fill="#3a59a8" d="m 254.00781,392.80469 c 8.79688,-9.07422 15.47656,-9.88282 15.47656,-9.88282 H 289.75 c 0,0 7.72656,-7.73437 21.87891,-22.14062 14.13671,-14.39063 24.0039,-12.26172 24.0039,-12.26172 h 56.01563 v -17.32422 c 0,-10.02734 -8.11328,-18.15625 -18.14453,-18.15625 H 238.54297 c -10.01172,0 -18.15235,8.12891 -18.15235,18.15625 v 94.79688 c 8.03516,-7.85938 26.78516,-26.14844 33.61719,-33.1875"/>
<path fill="#3a59a8" d="m 269.75391,433.07422 c 0,0 6.53125,-6.80078 12.52734,-12.79297 6.01172,-6.01563 14.40625,-4.79297 14.40625,-4.79297 h 94.96094 v -15.75 h -98.69532 c -15.74609,0 -23.19921,10.39063 -23.19921,10.39063 l -49.09375,49.34375 -0.26954,0.20703 v 7 c 0,10.02734 8.14063,18.15234 18.15235,18.15234 h 134.96484 c 10.02735,0 18.14063,-8.125 18.14063,-18.15234 V 433.07422 H 269.75391"/>
</g>
</svg>
