<svg version="1.1" xmlns="http://www.w3.org/2000/svg" width="170" height="170" viewBox="0 0 170 170">
<rect fill="#14A676" rx="19.75" ry="19.75" width="170" height="170"/>
<rect fill="#FFF" x="19" y="19" width="132" height="132"/>
<path d="M41.577,121.853 C39.96,121.853 38.325,121.767 36.716,121.597 35.097,121.425 33.496,121.167 31.957,120.827 L31,120.616 V109.151 L32.619,109.714 C33.705,110.091 34.767,110.376 35.777,110.564 36.772,110.748 37.839,110.843 38.943,110.843 42.74,110.843 45.381,109.657 47.019,107.22 48.738,104.661 49.61,100.255 49.61,94.118 L49.61,48 H62.858 V96.264 C62.858,104.889 61.137,111.36 57.741,115.502 54.287,119.717 48.849,121.853 41.577,121.853"/>
<path d="M124.935,121.255 L117.566,103.066 H82.851 L75.483,121.255 H62 L93.545,48 H108.171 L139.157,121.255 H124.935 M113.508,92.704 L100.62,61.077 L87.308,92.704 V92.704"/>
</svg>
