<svg xmlns="http://www.w3.org/2000/svg" version="1.1" width="500" height="493.87268" viewBox="0 0 500 493.87268">
<path d="M 107.84357,493.87267 C 49.019939,493.87267 4.1873648e-4,446.07853 4.1873648e-4,387.25501 V 106.6177 C 4.1873648e-4,47.794137 49.019939,7.402881e-7 107.84357,7.402881e-7 h 284.3137 C 452.20629,7.402881e-7 500.00042,47.794137 500.00042,106.6177 v 280.63731 c 0,58.82352 -47.79413,106.61766 -107.84315,106.61766 z" fill="#c48c31"/>
<path d="M 71.078931,139.70591 H 166.6672 c 17.15677,0 30.63703,4.90199 41.66653,13.4804 11.02949,8.57845 15.93137,22.05882 15.93137,40.44118 0,9.80393 -2.45215,19.60787 -7.35299,26.9608 -4.90189,8.57845 -12.25488,13.4804 -20.83326,18.38236 v 0 c 12.25488,3.67646 20.83326,9.80393 26.96087,19.60784 6.12727,9.80394 9.80377,20.83333 9.80377,35.53922 0,8.57845 -1.22435,17.15687 -3.6765,24.50983 -3.6765,6.12744 -7.353,13.48037 -13.48027,18.38235 -6.12761,4.90196 -13.48026,9.80391 -22.05899,12.25488 -9.80376,3.6765 -19.60788,4.90199 -33.08814,4.90199 H 71.078931 Z m 34.313529,89.46083 h 56.37251 c 7.353,0 14.706,-2.45111 19.60788,-7.35296 6.12761,-4.90195 8.57838,-12.25492 8.57838,-22.05882 0,-11.02943 -2.45215,-18.38235 -7.35265,-22.05882 -4.90223,-4.90198 -12.25488,-7.35296 -20.83361,-7.35296 h -56.37251 z m 0,94.36275 h 60.04901 c 11.0295,0 18.3825,-2.45111 24.50976,-8.57845 6.12762,-6.12744 8.57873,-14.70586 8.57873,-25.73528 0,-9.80394 -2.45215,-18.38236 -8.57873,-23.28431 -6.12726,-6.12747 -13.48026,-8.57845 -24.50976,-8.57845 h -60.04901 z" fill="#fff"/>
<path d="m 263.48086,139.70591 h 93.13716 c 22.05899,0 37.99037,4.90199 49.01952,15.93138 11.02949,9.80394 15.93138,24.50983 15.93138,42.89218 0,9.80391 -1.22435,18.38236 -3.67616,24.5098 -3.6765,7.35296 -6.12761,12.25491 -9.80411,15.93138 -3.6765,4.90195 -7.353,7.35296 -11.02949,9.80393 -3.6765,1.22539 -6.12727,2.45112 -7.353,3.67647 v 0 c 2.45215,0 6.12761,1.22538 8.57873,3.67646 3.67649,1.22539 7.35265,3.67647 9.80376,7.35293 2.45215,3.6765 4.90188,7.35296 7.353,13.4804 1.22434,4.90199 2.45215,12.25492 2.45215,20.83333 0,12.25492 1.22435,24.50983 2.45215,34.31374 2.45215,9.80394 4.90188,17.15686 8.57838,22.05885 h -36.76464 c -2.45215,-4.90199 -3.6765,-9.80394 -4.90188,-14.70589 0,-6.12747 0,-11.02943 0,-17.15687 0,-9.80394 -1.22435,-18.38235 -1.22435,-24.50983 -1.22434,-7.35292 -3.67649,-13.48036 -6.12761,-18.38235 -3.6765,-4.90195 -7.353,-7.35293 -12.25488,-9.8039 -4.90188,-2.45112 -11.0295,-3.67647 -19.60788,-3.67647 h -50.24525 v 88.23531 H 263.48432 V 139.70591 Z m 34.31352,98.03925 h 56.37287 c 11.02915,0 19.60788,-2.45112 24.50976,-8.57842 6.12727,-6.12747 8.57838,-14.70589 8.57838,-25.73532 0,-7.35292 -1.22435,-12.25491 -2.45215,-17.15686 -2.45215,-3.67647 -4.90189,-7.35293 -7.353,-9.80391 -3.67615,-2.45111 -7.35265,-3.67649 -11.02915,-4.90198 -4.90223,0 -8.57838,-1.22539 -13.48061,-1.22539 h -55.14713 v 67.40198 z" fill="#fff"/>
</svg>
