<svg xmlns="http://www.w3.org/2000/svg" viewBox="0 0 50 50" version="1.1">
<circle fill="#df0041" cx="25" cy="-25" r="25" transform="rotate(90)"/>
<path d="m 34.699999,34.668659 h -3.337662 l -6.467532,-7.688311 h -3.623376 v 7.688311 H 18.700001 V 15.330998 h 5.415584 q 1.753246,0 2.922077,0.233766 1.168831,0.22078 2.103896,0.805195 1.051948,0.662338 1.636364,1.675325 0.597402,1 0.597402,2.545454 0,2.090909 -1.051948,3.506493 -1.051948,1.402598 -2.896103,2.116883 z M 28.687013,20.772556 q 0,-0.831168 -0.298701,-1.467532 -0.285715,-0.649351 -0.961039,-1.090909 -0.558442,-0.376623 -1.324676,-0.519481 -0.766233,-0.155844 -1.805194,-0.155844 h -3.025974 v 7.298701 h 2.597402 q 1.22078,0 2.12987,-0.207792 0.909091,-0.220779 1.545455,-0.805195 0.584415,-0.545454 0.857143,-1.246753 0.285714,-0.714286 0.285714,-1.805195 z" fill="#000"/>
</svg>
