<svg xmlns="http://www.w3.org/2000/svg" version="1.0" height="54.229698" width="99.999969">
<g transform="translate(-325.51214,-132.78123) matrix(0.70786801,0,0,0.70786801,95.092512,54.631874)">
<path fill="#db5426" d="m 359.30783,163.73489 c 1.02832,-1.72265 -0.26612,-1.88574 -1.04786,-1.93505 -13.56201,-0.33497 -24.80908,7.86181 -32.56933,14.60791 -0.41016,0.35253 -0.043,0.833 0.39209,0.54296 8.87109,-6.06445 15.57177,-7.34765 26.38086,-8.58691 2.83105,-0.33496 5.77002,-2.83398 6.84424,-4.62891"/>
<path fill="#db5426" d="m 362.88595,150.91995 c 0.9082,-1.78369 -0.42383,-1.84717 -1.18262,-1.84717 -13.55371,0.61622 -24.9375,9.60108 -32.1914,16.875 -0.38135,0.38135 0.0317,0.85645 0.40576,0.51514 7.63232,-7.03906 15.3291,-8.69873 26.03808,-10.67383 2.79395,-0.52392 5.97999,-2.99707 6.93018,-4.86914"/>
<path fill="#db5426" d="m 365.80587,138.49075 c 0.85254,-1.81787 -0.47558,-1.83789 -1.24023,-1.81787 -13.52491,1.09619 -25.00391,10.47412 -32,17.99903 -0.35987,0.40722 0.04,0.82226 0.4331,0.50195 7.77393,-6.39502 14.99414,-9.15186 25.63086,-11.49902 2.77588,-0.62696 6.32569,-3.28858 7.17627,-5.18409"/>
<path fill="#db5426" d="m 353.63156,129.04691 c 0.7041,-2.14698 -1.79786,-1.54298 -2.88282,-0.89796 -4.37988,2.87891 -8.10107,6.75782 -15.00781,14.64698 -0.36719,0.4209 0.0508,0.79004 0.44385,0.4751 6.00781,-4.8169 10.20508,-6.10596 12.95312,-7.91504 2.37793,-1.56494 3.83789,-4.35108 4.49366,-6.30908"/>
<path fill="#938874" d="m 407.43771,178.87454 c -8.12891,-3.73437 -16.74512,-8.16406 -25.67578,-10.31054 -0.45899,-0.11084 -0.57325,-0.63184 0.20019,-0.65821 5.35254,-0.19189 19.97949,2.13477 31.14356,5.41602 13.71093,4.03027 25.61914,11.23828 30.20019,12.10547 0.54297,0.11132 0.37207,0.46972 0,0.54101 -11.0498,3.40625 -25.24804,-2.21191 -35.86816,-7.09375"/>
<path fill="#938874" d="m 412.3049,165.00882 c -8.30176,-3.30859 -18.46387,-6.979 -27.50879,-8.65576 -0.45801,-0.0952 -0.60157,-0.60108 0.1709,-0.65918 5.32519,-0.47998 22.75683,1.29687 34.06347,3.98828 13.91211,3.31494 26.36426,9.95605 31.00098,10.59375 0.54394,0.0723 0.40137,0.4248 0.0586,0.54102 -10.67773,3.75878 -26.93652,-1.49073 -37.78515,-5.80811"/>
<path fill="#938874" d="m 418.05783,151.46097 c -8.55957,-2.63721 -20.89649,-6.00293 -30.02832,-6.95899 -0.48536,-0.0688 -0.65821,-0.5498 0.11523,-0.67285 5.2666,-0.91015 23.3584,0.11475 34.83691,1.89307 14.11231,2.20068 28.99707,9.13965 33.66309,9.41406 0.54394,0.0317 0.42871,0.39453 0.0859,0.52979 -10.27735,4.91504 -27.50879,-0.75293 -38.67285,-4.20508"/>
<path fill="#938874" d="m 432.62814,139.65921 c -8.55957,-2.63428 -19.06446,-4.78125 -33.31934,-5.85693 -0.4873,-0.0342 -0.6875,-0.57227 0.0859,-0.66114 10.24707,-1.208 23.58691,-1.29101 35.06543,0.50391 14.1123,2.19482 27.2793,6.37695 31.94531,6.64111 0.54395,0.04 0.42969,0.40284 0.0859,0.54297 -8.50195,5.31006 -22.69922,2.27881 -33.86328,-1.16992"/>
<path fill="#db5426" d="m 356.71798,124.98782 c -0.31006,0.17529 -0.6792,-0.27197 -0.31006,-0.52295 5.46143,-3.8706 38.03369,-26.584958 79.08252,-4.62304 0.34375,0.17724 0.2002,0.68701 -0.22851,0.59814 -21.78418,-4.50879 -58.2295,-6.44092 -78.54395,4.54785"/>
</g>
</svg>
