<svg xmlns="http://www.w3.org/2000/svg" width="600" height="588.59" viewBox="0 0 600 588.59">
<rect width="600" height="588.59" fill="#4e7b53"/>
<path d="M200.84,444.66c-91.61,0-154.15-53.88-154.15-145.11,0-88.22,64.44-144.74,150.38-144.74,24.5,0,45.25,1.88,69,10.17l-4.15,49c-20.36-9.43-38.06-12.81-60.31-12.81-56.56,0-93.85,33.91-93.85,96.88s41.46,98.76,94.62,98.76c20.71,0,40.31-2.27,63-10.93l1.82,49.41c-17.72,6-41.85,9.41-66.36,9.41" fill="#fff"/>
<path d="M421,441.66H332.75V157.42h87.09c63.33,0,105.55,20.36,105.55,72.77,0,32.8-19.61,57.28-59.18,65.2v0.76c41.46,5.26,66.32,30.16,66.32,67.84,0,58.81-55.41,77.66-111.56,77.66m-12.07-242H388.16v77.64h15.1c38.8,0,66-6.8,66-39.21,0-31.27-27.53-38.45-60.31-38.45m-5,117.66H388.16V399.1h18.46c46.39,0,68.62-12,68.62-41.85,0-28.63-23-40-71.25-40" fill="#fff"/>
</svg>
