<svg version="1.1" xmlns="http://www.w3.org/2000/svg" width="300" height="162.59348" viewBox="0 0 300 162.59348">
<path id="p" d="m 0,64.95532 h 40.83531 v 49.73554 c 0,11.14354 27.83148,11.51742 34.14189,11.51742 6.31954,0 41.58308,-0.383 41.58308,-14.49936 V 0 h 151.44081 c 27.10196,0 31.96243,38.66496 31.96243,48.63213 0,9.51122 -4.48659,51.96973 -29.72825,51.96973 H 254.48659 L 300,157.89714 h -51.09429 l -74.0197,-92.94182 h 76.78278 c 8.90024,0 9.29236,-12.24695 9.29236,-14.83677 0,-2.60806 -0.39175,-13.37772 -8.92759,-13.37772 h -95.37662 v 82.42751 c 0,36.35783 -57.17673,43.42513 -78.69779,43.42513 C 48.24913,162.59347 0,152.58982 0,121.76728 V 64.95532" fill="#2cb431"/>
</svg>
