<svg xmlns="http://www.w3.org/2000/svg" width="313.59064" height="186.05005" version="1.1">
<g transform="translate(-133.46641,-488.06572)">
<path fill="#e08134" d="m 197.9899,572.03465 -64.52349,-0.12627 87.33386,-79.83194 c 2.68182,-2.71347 6.66091,-3.77182 11.28228,-4.01072 l 117.43023,0.50507 c 5.73135,-0.46961 8.74702,1.77646 11.85886,3.92635 l 85.49459,79.53751 -60.73542,0.25253 -35.5144,-38.12978 c -2.39466,-3.30185 -4.7401,-4.16229 -8.54081,-4.34892 l -28.80204,0.17857 0.12627,42.30013 -45.83567,-0.25253 0.25253,-42.0476 -28.91487,-0.22242 c -3.50745,-0.19675 -5.96339,1.54424 -8.52204,4.57684 z"/>
<path fill="#e08134" d="m 198.18072,590.14684 -64.52349,0.12627 87.33387,79.83194 c 2.68182,2.71347 6.66091,3.77182 11.28228,4.01072 l 117.43023,-0.50507 c 5.73135,0.46961 8.74702,-1.77646 11.85886,-3.92635 l 85.49459,-79.53751 -60.73542,-0.25253 -35.5144,38.12978 c -2.39466,3.30185 -4.7401,4.16229 -8.54081,4.34892 l -28.80204,-0.17857 0.12627,-42.30013 -45.83567,0.25253 0.25253,42.0476 -28.91487,0.22242 c -3.50745,0.19675 -5.96339,-1.54424 -8.52204,-4.57684 z"/>
</g>
</svg>
