<svg xmlns="http://www.w3.org/2000/svg" width="339" height="187" viewBox="0 0 339 187" version="1.1">
<linearGradient id="g0" gradientUnits="userSpaceOnUse" x1="-176.999527" y1="282.796295" x2="404.154541" y2="282.796295" gradientTransform="matrix(0.572635,0,0,-0.57362,104.79223,255.834356)">
<stop offset="0" style="stop-color:rgb(82.352941%,90.196078%,70.196078%);stop-opacity:1;"/>
<stop offset="1" style="stop-color:rgb(2.352941%,62.745098%,69.411765%);stop-opacity:1;"/>
</linearGradient>
<path fill="url(#g0)" d="M 84.464844 17.585938 C 90.324219 17.585938 95.640625 17.933594 101.480469 18.277344 C 108.195312 18.675781 114.875 19.605469 121.570312 20.324219 C 126.820312 20.890625 132.078125 21.375 137.304688 22.097656 C 142.03125 22.753906 146.183594 23.265625 150.820312 24.296875 C 152.542969 24.679688 155.539062 25.03125 155.539062 25.03125 C 155.539062 25.03125 158.421875 23.523438 159.925781 22.457031 C 166.695312 17.644531 173.898438 13.574219 181.4375 10.082031 C 188.648438 6.742188 196.039062 4.089844 203.980469 3.09375 C 209.148438 2.445312 214.175781 3.316406 219.167969 4.230469 C 232.050781 6.582031 244.523438 10.4375 256.703125 15.210938 C 266.070312 18.882812 275.503906 22.429688 284.652344 26.59375 C 293.976562 30.84375 303.023438 35.714844 312.125 40.4375 C 317.375 43.160156 322.574219 46 327.636719 49.050781 C 330.0625 50.515625 332.296875 52.414062 334.304688 54.429688 C 337.582031 57.71875 336.523438 62.253906 332.207031 63.96875 C 330.925781 64.476562 329.503906 64.851562 328.136719 64.898438 C 318.121094 65.25 309.054688 64.128906 299.125 62.753906 C 290.75 61.59375 282.003906 60.046875 273.613281 59.050781 C 266.421875 58.195312 260.691406 57.792969 253.460938 57.261719 C 250.160156 57.019531 245.929688 56.636719 242.621094 56.625 C 238.421875 56.605469 233.554688 56.90625 229.355469 57.132812 C 224.273438 57.410156 219.914062 58.128906 214.871094 58.765625 C 208.066406 59.628906 200.050781 60.710938 193.363281 62.191406 C 186.101562 63.800781 178.914062 65.847656 171.820312 68.105469 C 158.28125 72.40625 145.503906 78.460938 133.449219 85.96875 C 125.652344 90.824219 118.375 96.382812 111.433594 102.433594 C 103.292969 109.523438 95.933594 117.324219 88.972656 125.554688 C 84.957031 130.304688 80.730469 134.875 76.621094 139.542969 C 75.074219 141.296875 73.636719 143.148438 72.046875 144.859375 C 66.679688 150.632812 61.300781 156.398438 55.855469 162.101562 C 53.511719 164.554688 51.085938 166.945312 48.539062 169.1875 C 46.203125 171.242188 43.652344 173.050781 41.199219 174.972656 C 39.765625 176.101562 38.433594 177.394531 36.886719 178.328125 C 34.710938 179.640625 32.375 180.695312 30.109375 181.855469 C 29.550781 182.144531 29.003906 182.46875 28.421875 182.699219 C 27.4375 183.082031 26.445312 183.453125 25.425781 183.730469 C 24.519531 183.980469 23.542969 183.996094 22.648438 184.285156 C 20.15625 184.558594 17.730469 184.121094 15.671875 183.179688 C 13.480469 182.179688 11.628906 180.410156 9.886719 178.445312 C 8.429688 176.804688 7.363281 174.835938 6.621094 173.273438 C 5.808594 169.847656 5.035156 166.753906 4.492188 163.207031 C 4.371094 162.402344 4.179688 161.328125 4.125 160.5 C 3.886719 156.828125 3.359375 153.152344 3.445312 149.488281 C 3.5625 144.546875 4.128906 139.609375 4.554688 134.675781 C 4.613281 134 5.625 128.113281 6.035156 125.863281 C 6.964844 120.742188 7.992188 115.632812 9.050781 110.535156 C 9.8125 106.859375 10.625 103.1875 11.53125 99.546875 C 12.253906 96.640625 13.128906 93.773438 13.992188 90.90625 C 14.925781 87.804688 15.859375 84.699219 16.902344 81.628906 C 19.355469 74.402344 21.917969 67.210938 24.351562 59.972656 C 26.183594 54.523438 28.078125 49.074219 31.34375 44.324219 C 33.820312 40.722656 36.664062 37.34375 39.617188 34.113281 C 41.699219 31.835938 44.171875 29.902344 46.574219 27.945312 C 51.449219 23.980469 57.097656 21.640625 63.117188 19.960938 C 69.945312 18.054688 77.429688 16.875 84.464844 17.585938 Z M 146.535156 31.5625 C 146.195312 31.351562 144.730469 31.039062 144.207031 30.960938 C 138.738281 30.136719 133.277344 29.261719 127.792969 28.597656 C 122.046875 27.90625 116.277344 27.378906 110.511719 26.867188 C 104.363281 26.328125 98.214844 25.730469 92.054688 25.457031 C 86.644531 25.222656 81.1875 25.058594 75.800781 25.5 C 71.085938 25.886719 66.324219 26.765625 61.792969 28.132812 C 56.214844 29.820312 51.460938 33.078125 47.015625 36.996094 C 41.53125 41.832031 37.332031 47.539062 34.316406 54.023438 C 31.726562 59.597656 29.964844 65.5625 27.832031 71.347656 C 27.128906 73.253906 26.292969 75.121094 25.707031 77.0625 C 23.730469 83.644531 21.765625 90.234375 19.933594 96.855469 C 18.308594 102.742188 17.011719 108.722656 15.304688 114.582031 C 12.976562 122.589844 11.300781 130.984375 10.617188 139.1875 C 10.382812 142.003906 10.289062 144.71875 10.308594 147.554688 C 10.339844 151.929688 10.425781 156.339844 11.015625 160.660156 C 11.566406 164.691406 11.519531 168.984375 14.074219 172.511719 C 14.910156 173.667969 15.753906 174.949219 16.898438 175.730469 C 20.53125 178.203125 24.253906 176.859375 27.695312 175.265625 C 30.023438 174.183594 32.289062 172.667969 34.125 170.875 C 38.085938 167.007812 42.035156 163.058594 45.46875 158.730469 C 49.835938 153.21875 53.753906 147.347656 57.726562 141.535156 C 60.078125 138.101562 62.085938 134.433594 64.375 130.957031 C 68.855469 124.144531 73.332031 117.328125 77.984375 110.632812 C 83.140625 103.203125 88.441406 95.871094 93.777344 88.570312 C 97.164062 83.941406 100.605469 79.347656 104.242188 74.917969 C 111.390625 66.207031 118.339844 57.3125 126.640625 49.617188 C 131.121094 45.460938 135.511719 41.210938 139.996094 37.058594 C 141.851562 35.34375 144.25 33.5 146.535156 31.5625 Z M 324.25 56.238281 C 322.613281 55.214844 320.320312 53.894531 318.621094 52.992188 C 310.699219 48.777344 302.800781 44.503906 294.78125 40.484375 C 287.054688 36.609375 279.355469 32.589844 271.335938 29.402344 C 261.625 24.425781 247.960938 20.03125 235.859375 15.863281 C 228.269531 13.25 221.304688 11.402344 213.285156 10.5 C 207.300781 9.824219 200.089844 11.292969 194.496094 13.175781 C 185.949219 16.058594 177.921875 20.085938 170.246094 24.820312 C 169.144531 25.5 168.078125 26.246094 166.628906 27.207031 C 167.625 27.59375 168.714844 27.683594 169.089844 27.839844 C 179.132812 30.15625 188.734375 32.636719 198.792969 34.882812 C 206.054688 36.503906 213.335938 38.039062 220.628906 39.527344 C 226.484375 40.722656 232.375 41.738281 238.234375 42.917969 C 246.960938 44.675781 255.648438 46.605469 264.390625 48.273438 C 271.949219 49.71875 279.542969 50.976562 287.144531 52.191406 C 294.171875 53.3125 301.21875 54.332031 308.277344 55.261719 C 313.242188 55.917969 324.140625 56.515625 324.25 56.238281 Z M 73.242188 132.257812 C 92.039062 108.492188 115.984375 85.480469 143.222656 71.617188 C 170.359375 57.800781 200.71875 50.800781 231.015625 49.339844 C 229.15625 48.75 227.167969 48.339844 225.273438 47.933594 C 219.058594 46.59375 212.867188 45.191406 206.652344 43.84375 C 197.578125 41.878906 188.289062 40.003906 179.230469 37.96875 C 173.890625 36.769531 171.582031 36.449219 166.253906 35.207031 C 165.730469 35.085938 158.632812 33.332031 158.632812 33.332031 C 158.632812 33.332031 156.917969 34.164062 156.324219 34.511719 C 152.34375 36.851562 148.410156 39.496094 145.058594 42.65625 C 137.410156 49.867188 129.964844 57.308594 122.742188 64.945312 C 117.839844 70.125 113.265625 75.640625 108.890625 81.277344 C 102.324219 89.734375 96.007812 98.386719 89.6875 107.03125 C 85.625 112.589844 81.71875 118.265625 77.808594 123.933594 C 76.6875 125.558594 72.957031 132.035156 73.242188 132.257812 Z M 73.242188 132.257812 "/>
</svg>
