<svg version="1.1" xmlns="http://www.w3.org/2000/svg" width="110" height="110" viewBox="0 0 110 110">
<path fill-rule="evenodd" clip-rule="evenodd" fill="#00A6BF" d="M95.793,110.148H84.561L71.257,93.485H38.729l-13.214,16.663 H14.207l19.93-24.858c-2.999-0.412-6.048-1.029-8.981-1.633c-3.524-6.551-5.597-14.115-5.597-22.146V17.9 c0-6.825,5.095-12.48,11.645-13.4H78.9c6.497,0.92,11.566,6.575,11.566,13.4v43.611c0,8.03-2.174,15.595-5.584,22.146 c-2.92,0.604-5.982,1.35-8.993,1.813L95.793,110.148z"/>
<path fill-rule="evenodd" clip-rule="evenodd" fill="#FFFFFF" d="M83.185,37.162c0,15.575-12.622,28.21-28.204,28.21 c-15.568,0-28.204-12.635-28.204-28.21v-17.26c0-5.649,4.556-10.21,10.218-10.21h35.974c5.623,0,10.217,4.561,10.217,10.21V37.162z"/>
<path fill-rule="evenodd" clip-rule="evenodd" fill="#FFFFFF" d="M40.158,68.331c0-2.959-2.316-5.185-5.147-5.185 c-2.753,0-5.03,2.226-5.03,5.185c0,2.678,2.277,5.069,5.03,5.069C37.842,73.4,40.158,71.009,40.158,68.331"/>
<path fill-rule="evenodd" clip-rule="evenodd" fill="#FFFFFF" d="M75.015,73.4c2.778,0,5.055-2.392,5.055-5.069 c0-2.959-2.276-5.185-5.055-5.185c-2.793,0-5.122,2.226-5.122,5.185C69.893,71.009,72.222,73.4,75.015,73.4"/>
<path fill="#080103" d="M37.585,40.417c0,0.817,0.052,1.57,0.193,2.227c0.128,0.688,0.372,1.229,0.721,1.685 c0.373,0.477,0.837,0.792,1.467,1.094c0.605,0.264,1.376,0.385,2.277,0.385c1.106,0,2.058-0.36,2.934-1.042 c0.888-0.714,1.312-1.833,1.312-3.294c0-0.791-0.104-1.473-0.296-2.072c-0.244-0.553-0.578-1.036-1.094-1.538 c-0.463-0.463-1.119-0.868-1.931-1.228c-0.81-0.38-1.801-0.759-2.984-1.184c-1.57-0.515-2.933-1.068-4.079-1.698 c-1.145-0.643-2.122-1.371-2.869-2.2c-0.783-0.817-1.363-1.808-1.697-2.915c-0.387-1.081-0.542-2.355-0.542-3.81 c0-3.474,0.94-6.085,2.909-7.784c1.93-1.698,4.568-2.567,7.952-2.567c1.582,0,3.022,0.18,4.36,0.515 c1.326,0.354,2.483,0.921,3.462,1.686c0.952,0.76,1.724,1.75,2.265,2.947c0.514,1.203,0.784,2.638,0.784,4.324v0.991h-6.78 c0-1.686-0.295-2.966-0.888-3.874c-0.592-0.939-1.569-1.344-2.947-1.344c-0.797,0-1.441,0.103-1.98,0.315 c-0.526,0.251-0.953,0.554-1.235,0.921c-0.31,0.373-0.515,0.829-0.67,1.305c-0.103,0.527-0.154,1.016-0.154,1.544 c0,1.068,0.244,2.001,0.721,2.729c0.411,0.72,1.416,1.421,2.922,2.052l5.48,2.335c1.325,0.618,2.433,1.235,3.281,1.866 c0.849,0.649,1.519,1.306,2.059,2.058c0.489,0.741,0.85,1.538,1.056,2.464c0.179,0.869,0.282,1.859,0.282,2.908 c0,3.744-1.068,6.446-3.216,8.145c-2.163,1.685-5.135,2.503-8.982,2.503c-4.014,0-6.896-0.843-8.595-2.58 c-1.762-1.757-2.623-4.233-2.623-7.528v-1.434h7.127V40.417z"/>
<path fill="#080103" d="M63.164,40.417c0,0.817,0.051,1.57,0.18,2.227c0.129,0.688,0.361,1.229,0.721,1.685 c0.373,0.477,0.823,0.792,1.454,1.094c0.618,0.264,1.389,0.385,2.304,0.385c1.093,0,2.045-0.36,2.921-1.042 c0.887-0.714,1.337-1.833,1.337-3.294c0-0.791-0.129-1.473-0.334-2.072c-0.232-0.553-0.592-1.036-1.067-1.538 c-0.477-0.463-1.146-0.868-1.943-1.228c-0.812-0.38-1.803-0.759-2.984-1.184c-1.583-0.515-2.923-1.068-4.104-1.698 c-1.134-0.643-2.085-1.371-2.857-2.2c-0.76-0.817-1.338-1.808-1.698-2.915c-0.359-1.081-0.539-2.355-0.539-3.81 c0-3.474,0.95-6.085,2.906-7.784c1.931-1.698,4.58-2.567,7.99-2.567c1.557,0,3.011,0.18,4.324,0.515 c1.337,0.354,2.496,0.921,3.473,1.686c0.965,0.76,1.724,1.75,2.24,2.947c0.539,1.203,0.849,2.638,0.849,4.324v0.991h-6.82 c0-1.686-0.308-2.966-0.887-3.874c-0.566-0.939-1.571-1.344-2.947-1.344c-0.811,0-1.452,0.103-1.98,0.315 c-0.516,0.251-0.938,0.554-1.249,0.921c-0.321,0.373-0.515,0.829-0.643,1.305c-0.103,0.527-0.155,1.016-0.155,1.544 c0,1.068,0.231,2.001,0.669,2.729c0.465,0.72,1.455,1.421,2.961,2.052l5.48,2.335c1.325,0.618,2.432,1.235,3.281,1.866 c0.875,0.649,1.556,1.306,2.031,2.058c0.516,0.741,0.902,1.538,1.057,2.464c0.207,0.869,0.308,1.859,0.308,2.908 c0,3.744-1.066,6.446-3.216,8.145c-2.162,1.685-5.146,2.503-8.98,2.503c-4.028,0-6.859-0.843-8.621-2.58 c-1.725-1.757-2.561-4.233-2.561-7.528v-1.434h7.103V40.417z"/>
</svg>
