<svg version="1.1" xmlns="http://www.w3.org/2000/svg" viewBox="0 0 125 125">
<polygon fill="#70D44B" points="107.2,56.4 42.9,56.4 42.9,69.2 68.6,69.2 68.6,120.6 81.5,120.6 81.5,69.2 107.2,69.2 "/>
<polygon fill="#F4C55C" points="68.6,107.8 68.6,43.5 55.8,43.5 55.8,69.2 4.4,69.2 4.4,82.1 55.8,82.1 55.8,107.8 "/>
<polygon fill="#00ACD8" points="17.2,69.2 81.5,69.2 81.5,56.4 55.8,56.4 55.8,5 42.9,5 42.9,56.4 17.2,56.4 "/>
<polygon fill="#FF671D" points="55.8,17.8 55.8,82.1 68.6,82.1 68.6,56.4 120,56.4 120,43.5 68.6,43.5 68.6,17.8 "/>
</svg>
