<svg version="1.1" xmlns="http://www.w3.org/2000/svg" viewBox="0 0 154.2424164 35.8013725">
<path fill="#781d7e" d="M42.0786285,6.4013472c-0.0480042-0.0239868,6.4709778-1.6029663,23.519989-1.6029663  c0,0,22.276001,0.1099854,30.9710083,1.4920044c0,0-4.053009,2.0899658-16.9990234,3.2440186  c0,0-12.9960022,0.440979-13.8099976,0.3299561l-6.6849976,25.9370117c0,0-4.2599792-3.5739746-2.4289856-11.8359985  c0,0,1.9949951-9.4190073,3.2940063-14.2100229C59.9406281,9.7553511,47.0966034,8.9373579,42.0786285,6.4013472"/>
<path fill="#781d7e" d="M65.1120148,30.4122734l3.8899841-15.0359507h4.4240112l-1.3010254,5.1209726  c0,0,2.32901-6.2269907,6.2660217-5.455018l-0.9240112,3.908021c0,0-4.2049866-2.2030029-7.9309998,11.4619751H65.1120148z"/>
<path fill="#781d7e" d="M89.1743011,17.5231743c0.0219727-0.0759888-2.4290161-0.8859863-4.2580261,1.757019  c0,0-1.8869934,2.4790039-2.4830017,5.8980103c0,0-0.5529785,1.9819946,0.9100037,2.3699951  c0,0,1.5190125,0.2210083,3.026001-2.8670044C86.369278,24.6811943,87.7752838,22.2011528,89.1743011,17.5231743   M93.9763031,16.1491508l-3.6190186,14.3190308l-4.3150024-0.0549927l1.2460022-4.1400146  c-3.0780029,5.3460083-6.848999,4.4589844-6.848999,4.4589844c-3.3930054-1.1049805-2.644989-4.7349854-2.644989-4.7349854  c0.802002-7.3139648,6.6340027-10.0689707,6.6340027-10.0689707C89.0122833,13.5611982,93.9763031,16.1491508,93.9763031,16.1491508  "/>
<path fill="#781d7e" d="M95.1045074,30.4122734l3.8899841-15.0899668h4.1520081l-1.085022,3.9049692  c0,0,2.6470032-5.1779795,7.3930054-4.072999c0,0,2.0410156,0.4430542,1.7260132,3.1440439l-2.9060059,12.1139526  l-4.5310059-0.0549927l2.5360107-9.8049927c0,0,0.8670044-2.4199829-0.651001-2.3670044  c0,0-2.9700012-0.552002-6.1560059,12.1719971L95.1045074,30.4122734z"/>
<path fill="#781d7e" d="M123.7520294,18.0187798c0.0429993,0.0180054,1.0279846-2.3679819,1.0279846-2.3679819  s-3.9970093-1.7050171-6.8479919-0.1660156c0,0-2.8070068,1.0980234-3.1860046,3.8530283  c0,0-0.2709961,1.7680054,1.5039978,3.5830078c1.7789917,1.815979,2.105011,2.2030029,2.105011,2.2030029  s1.1839905,1.3009644,0.052002,2.4530029c0,0-1.7970276,1.5-4.9350281-0.4890137l-1.3549805,2.4420166  c0,0,3.9719849,2.0639648,7.6279907,0.6820068c0,0,2.8770142-1.1750488,3.3389893-3.6190186  c0,0,0.5200195-1.9119873-0.6109924-3.5980225c0,0-2.1699829-2.2919922-2.7279968-2.822998  c0,0-1.5409851-1.3439941,0.0740051-2.480957C119.8190155,17.6908379,121.1370087,16.9327812,123.7520294,18.0187798"/>
<polygon fill="#781d7e" points="130.3036041,11.1938887 134.8315887,11.1569014 134.1075897,13.6769209 129.5595856,13.6769209 "/>
<polygon fill="#781d7e" points="129.246109,15.2473555 133.6990814,15.2844038 129.8571014,30.4783745 125.292099,30.4783745 "/>
<path fill="#781d7e" d="M138.2644196,17.803875c0.0529785,0,1.3539734-5.000001,1.3539734-5.000001l4.303009-0.0369873  l-1.1659851,5.0010386c0,0,8.79599-0.1880493,11.4869995,0.7559814c0,0-2.9890137,1.5380249-12.0429993,1.4970093  l-2.6930237,10.4959717h-4.4889832l2.7999878-10.9899902c0,0-2.3760071-0.3569946-3.2850037-1.1900024  C134.5323944,18.336895,135.1264191,17.803875,138.2644196,17.803875"/>
<path fill="#eb6e1f" d="M13.3440094,11.8258467c0.0179901,0.0090332-1.181015,2.94104-1.181015,2.94104  s-1.5119934-1.1630249-3.7069855-0.5709839c0,0-2.6320038,0.8769531-0.7520142,3.3469858  c0,0,2.1490021,2.1409912,2.8270111,2.9899902c0,0,1.8789978,1.8480225,1.6109924,4.1809692  c0,0-0.0690002,3.0950317-2.6600037,4.7390137c0,0-4.4349976,3.0549927-9.4819946-0.1409912l1.352005-2.8480225  c0,0,2.0529938,1.4470215,4.4389954,0.9990234c0,0,2.6569977-0.7949829,0.9000092-3.539978  c0,0-0.7650146-0.9550171-1.576004-1.6790161c0,0-1.9140015-1.7109985-2.5240021-3.1270142  c0,0-1.102005-2.4719849,0.2030029-4.8389902c0,0,1.2849884-2.5419922,4.7429962-3.2529907  C7.5370026,11.0248823,11.1049957,10.5768843,13.3440094,11.8258467"/>
<path fill="#eb6e1f" d="M21.6206055,18.97929h1.6790009c1.2380066-0.2780151,1.6230011-1.0209961,1.6230011-1.0209961  c0.5619965-0.7940063,0.5619965-2.3010263,0.5619965-2.3010263c-0.0349884-1.1729736-0.9680023-1.4829712-0.9680023-1.4829712  l-1.9489899-0.1030273L21.6206055,18.97929z M19.9436035,27.4282646l2.3530121-0.0689697  c1.3059998-0.2090454,1.9839935-1.3810425,1.9839935-1.3810425c0.7079926-0.9879761,0.5050049-2.9419556,0.5050049-2.9419556  c-0.4260101-1.2630005-1.7910004-1.2410278-1.7910004-1.2410278h-2.0149994L19.9436035,27.4282646z M14.3246155,30.5202446  l3.8069916-19.3209839l7.3849945-0.0689697c0,0,3.9980011,0,4.878006,2.5039673c0,0,0.8769989,2.2659912-0.8679962,4.6329966  c0,0-1.2160034,1.4710083-3.4340057,2.059021c0,0,3.1419983,0.5159912,3.6710052,2.9169922  c0,0,0.6629944,3.0820313-1.8600006,5.309021c0,0-1.7449951,1.6220093-4.6040039,1.7959595L14.3246155,30.5202446z"/>
<path fill="#eb6e1f" d="M44.9582062,11.7764692c0.0169983,0.0090332-1.184021,2.9380493-1.184021,2.9380493  s-1.5109863-1.1630249-3.7039795-0.5710449c0,0-2.632019,0.8780518-0.7520142,3.3500376  c0,0,2.1489868,2.1380005,2.8269958,2.9849854c0,0,1.8789978,1.8519897,1.6100159,4.1849976  c0,0-0.0680237,3.0930176-2.6590271,4.7379761c0,0-4.4349976,3.0570068-9.4799805-0.1389771l1.3509979-2.8529663  c0,0,2.0490112,1.4489746,4.4380035,1.0009766c0,0,2.6569824-0.7919922,0.8999939-3.539978  c0,0-0.7659912-0.9520264-1.5759888-1.6760254c0,0-1.9160004-1.7160034-2.5240021-3.1290283  c0,0-1.102005-2.4689941,0.2030029-4.8389902c0,0,1.2839966-2.539978,4.7429962-3.2509766  C39.1511993,10.9755049,42.7191925,10.5275068,44.9582062,11.7764692"/>
<path fill="#eb6e1f" d="M25.3093109,1.046672c-0.053009-0.0259399,9.0410004-1.4139404,20.1289978-0.9529418  c0,0,16.3199768,0.302002,20.2369995,1.2119751c0,0-2.7860107,1.5429689-20.8320007,1.9359742  C44.8433075,3.2416794,29.7093048,3.1966965,25.3093109,1.046672"/>
</svg>
