<svg version="1.1" xmlns="http://www.w3.org/2000/svg" width="450" height="450" viewBox="0 0 450 450">
<circle fill="#81A914" cx="225" cy="225" r="225"/>
<path fill="#FFF" d="M111.213,244.975c-2.849-1.838-5.926-4.058-9.233-6.661s-6.708-5.996-10.198-10.183 c-2.666-3.266-4.916-6.405-6.753-9.417c-1.839-3.01-3.493-6.099-4.961-9.264c-1.471,3.778-3.308,7.326-5.513,10.642 c-2.205,3.318-4.916,7.02-8.131,11.102c-2.666,3.368-5.422,6.278-8.269,8.728c-2.849,2.45-5.974,4.953-9.372,7.504l-12.127-11.484 c5.42-3.775,10.313-7.91,14.677-12.403c4.362-4.491,8.062-9.544,11.094-15.16c3.491-6.532,5.878-13.346,7.167-20.442 c1.285-7.094,1.929-14.47,1.929-22.126v-22.203h16.675v22.203c0,5.819,0.689,13.042,2.067,21.667 c1.378,8.627,4.18,16.104,8.407,22.433c3.766,5.513,7.58,10.03,11.438,13.552s7.67,6.458,11.438,8.804L111.213,244.975z M133.952,270.853v-75.337h-24.393v-16.69h24.393v-42.722h15.986v134.75H133.952z"/>
<path fill="#FFF" d="M165.511,184.95v-15.16h63.394v15.16H165.511z M218.293,242.142c-5.698,5.259-12.679,7.886-20.948,7.886 c-7.717,0-14.586-2.603-20.603-7.81c-6.018-5.206-9.026-12.35-9.026-21.437c0-8.778,3.008-15.849,9.026-21.208 c6.017-5.359,12.886-8.039,20.603-8.039c8.176,0,15.136,2.732,20.879,8.192c5.741,5.462,8.613,12.479,8.613,21.055 C226.837,229.765,223.988,236.886,218.293,242.142z M179.706,160.91v-14.7h34.591v14.7H179.706z M187.561,210.599 c-2.666,2.502-3.997,5.998-3.997,10.489c0,4.391,1.354,7.732,4.065,10.029c2.709,2.297,5.948,3.445,9.716,3.445 c3.859,0,7.098-1.148,9.716-3.445c2.619-2.297,3.928-5.689,3.928-10.182c0-4.388-1.264-7.833-3.79-10.336 c-2.528-2.5-5.812-3.752-9.854-3.752C193.487,206.847,190.224,208.098,187.561,210.599z M263.771,270.853v-63.7h-11.714v57.575 h-15.435V139.166h15.435v49.919h11.714v-52.981h15.435v134.75H263.771z"/>
<path fill="#FFF" d="M364.235,213.891c-2.298-0.919-5.329-2.55-9.096-4.9c-3.769-2.347-7.259-5.053-10.474-8.116 c-2.298-2.144-4.389-4.338-6.271-6.584c-1.884-2.244-3.699-4.797-5.443-7.656c-1.378,2.756-3.101,5.539-5.168,8.345 c-2.067,2.809-4.571,5.742-7.511,8.805c-3.125,3.269-6.363,6.101-9.716,8.499c-3.355,2.4-6.271,4.314-8.751,5.742l-11.301-12.556 c4.041-2.244,8.176-5.027,12.403-8.345c4.225-3.316,8.083-7.273,11.576-11.867c3.949-5.104,6.591-10.283,7.924-15.542 c1.331-5.257,1.998-10.693,1.998-16.308v-13.628h16.951v13.628c0,5.412,0.734,10.695,2.205,15.849 c1.469,5.156,3.904,9.826,7.304,14.011c3.491,4.187,7.305,7.733,11.438,10.642c4.135,2.91,7.9,5.08,11.301,6.508L364.235,213.891z M315.588,267.791v-42.109h16.262v26.644h74.97v15.466H315.588z M388.077,233.491v-55.737h-24.394v-16.538h24.394v-25.113h15.986 v97.388H388.077z"/>
<path fill="#FFF" d="M81.58,324.494l1.492-5.4c2.675,1.475,5.452,2.212,8.333,2.212c1.749,0,3.206-0.343,4.372-1.029 c1.234-0.822,1.852-2.006,1.852-3.549c0-1.405-0.617-2.623-1.852-3.652c-0.857-0.617-2.247-1.251-4.167-1.903 c-6.207-2.263-9.31-5.691-9.31-10.287c0-3.292,1.251-5.829,3.755-7.612c2.229-1.611,5.006-2.418,8.333-2.418 c3.257,0,6.035,0.617,8.333,1.852l-1.646,5.299c-2.023-1.166-4.321-1.749-6.893-1.749c-1.509,0-2.812,0.326-3.909,0.977 c-1.166,0.755-1.749,1.784-1.749,3.087c0,1.304,0.72,2.452,2.161,3.446c0.856,0.583,2.314,1.269,4.372,2.058 c2.812,1.098,4.903,2.332,6.275,3.703c1.817,1.783,2.726,4.047,2.726,6.79c0,3.601-1.372,6.344-4.115,8.229 c-2.333,1.543-5.316,2.314-8.95,2.314C87.187,326.86,84.049,326.072,81.58,324.494z"/>
<path fill="#FFF" d="M130.188,315.441h-16.614c0,1.887,0.72,3.413,2.161,4.578c1.337,1.098,3.138,1.646,5.401,1.646 c2.366,0,4.663-0.395,6.893-1.184l1.08,4.681c-2.641,1.098-5.573,1.646-8.796,1.646c-3.909,0-7.013-1.14-9.31-3.421 c-2.298-2.28-3.446-5.427-3.446-9.438c0-3.943,1.063-7.167,3.189-9.671c2.194-2.64,5.178-3.96,8.95-3.96 c3.429,0,6.104,1.183,8.024,3.549c1.817,2.264,2.726,5.179,2.726,8.744C130.445,313.435,130.359,314.379,130.188,315.441z M113.574,310.606h10.956c0-1.474-0.411-2.726-1.234-3.755c-0.926-1.234-2.263-1.852-4.012-1.852c-1.646,0-2.966,0.583-3.96,1.749 C114.328,307.915,113.745,309.201,113.574,310.606z"/>
<path fill="#FFF" d="M146.185,326.86c-3.738,0-6.756-1.208-9.053-3.626c-2.298-2.418-3.446-5.563-3.446-9.438 c0-4.013,1.157-7.253,3.472-9.722c2.314-2.469,5.426-3.704,9.336-3.704c3.771,0,6.79,1.201,9.053,3.601 c2.263,2.401,3.395,5.521,3.395,9.362c0,4.012-1.167,7.271-3.498,9.772C153.111,325.609,150.025,326.86,146.185,326.86z M146.185,321.974c2.058,0,3.669-0.927,4.835-2.778c0.959-1.576,1.44-3.446,1.44-5.606c0-2.194-0.463-4.046-1.389-5.555 c-1.098-1.853-2.692-2.778-4.784-2.778c-2.126,0-3.755,0.926-4.886,2.778c-0.926,1.509-1.389,3.395-1.389,5.657 c0,2.161,0.463,4.013,1.389,5.556C142.533,321.066,144.127,321.974,146.185,321.974z"/>
<path fill="#FFF" d="M179.566,291.369h6.224v13.888h14.557v-13.888h6.224v34.926h-6.224v-15.277h-14.557v15.277h-6.224V291.369z "/>
<path fill="#FFF" d="M232.598,310.915v9.053c0,2.572,0.154,4.681,0.463,6.327h-5.76l-0.412-2.623 c-1.749,2.126-4.184,3.188-7.304,3.188c-2.263,0-4.149-0.686-5.658-2.057c-1.509-1.372-2.263-3.206-2.263-5.504 c0-3.669,1.714-6.327,5.144-7.973c2.502-1.166,5.675-1.749,9.515-1.749v-0.36c0-2.709-1.663-4.063-4.989-4.063 c-2.469,0-4.699,0.669-6.687,2.006l-1.389-4.475c2.605-1.543,5.658-2.315,9.156-2.315 C229.203,300.37,232.598,303.885,232.598,310.915z M226.529,317.447v-3.343c-5.762,0-8.642,1.491-8.642,4.475 c0,2.298,1.166,3.446,3.498,3.446c1.337,0,2.529-0.445,3.575-1.337C226.006,319.797,226.529,318.717,226.529,317.447z"/>
<path fill="#FFF" d="M259.963,315.441h-16.615c0,1.887,0.721,3.413,2.161,4.578c1.337,1.098,3.138,1.646,5.401,1.646 c2.365,0,4.662-0.395,6.893-1.184l1.08,4.681c-2.642,1.098-5.573,1.646-8.797,1.646c-3.908,0-7.013-1.14-9.31-3.421 c-2.298-2.28-3.446-5.427-3.446-9.438c0-3.943,1.063-7.167,3.189-9.671c2.193-2.64,5.178-3.96,8.949-3.96 c3.43,0,6.104,1.183,8.025,3.549c1.816,2.264,2.726,5.179,2.726,8.744C260.22,313.435,260.134,314.379,259.963,315.441z M243.348,310.606h10.957c0-1.474-0.412-2.726-1.234-3.755c-0.926-1.234-2.264-1.852-4.013-1.852c-1.646,0-2.966,0.583-3.96,1.749 C244.102,307.915,243.52,309.201,243.348,310.606z"/>
<path fill="#FFF" d="M280.794,326.295v-34.926h6.224v29.422h14.197v5.504H280.794z"/>
<path fill="#FFF" d="M308.467,297.593c-1.063,0-1.929-0.325-2.598-0.978c-0.668-0.65-1.003-1.576-1.003-2.777 c0-1.165,0.351-2.083,1.054-2.752s1.586-1.003,2.65-1.003c1.063,0,1.945,0.334,2.648,1.003c0.702,0.669,1.055,1.587,1.055,2.752 c0,1.166-0.369,2.083-1.106,2.752S309.529,297.593,308.467,297.593z M311.707,326.295h-6.275v-25.41h6.275V326.295z"/>
<path fill="#FFF" d="M318.239,326.295v-17.746c0-0.856-0.034-2.083-0.103-3.678c-0.069-1.595-0.104-2.923-0.104-3.986h5.453 l0.309,3.498c1.646-2.675,4.303-4.013,7.973-4.013c2.948,0,5.195,1.081,6.738,3.241c1.474,1.921,2.211,4.458,2.211,7.612v15.071 h-6.223v-14.042c0-4.321-1.596-6.481-4.784-6.481c-1.132,0-2.152,0.352-3.061,1.055c-0.909,0.703-1.552,1.586-1.929,2.648 c-0.172,0.584-0.258,1.234-0.258,1.955v14.865H318.239z"/>
<path fill="#FFF" d="M368.185,315.441H351.57c0,1.887,0.721,3.413,2.16,4.578c1.338,1.098,3.139,1.646,5.401,1.646 c2.366,0,4.663-0.395,6.893-1.184l1.08,4.681c-2.642,1.098-5.573,1.646-8.796,1.646c-3.909,0-7.014-1.14-9.311-3.421 c-2.297-2.28-3.445-5.427-3.445-9.438c0-3.943,1.063-7.167,3.188-9.671c2.194-2.64,5.178-3.96,8.95-3.96 c3.429,0,6.104,1.183,8.024,3.549c1.817,2.264,2.726,5.179,2.726,8.744C368.441,313.435,368.355,314.379,368.185,315.441z M351.57,310.606h10.956c0-1.474-0.411-2.726-1.234-3.755c-0.926-1.234-2.263-1.852-4.013-1.852c-1.646,0-2.966,0.583-3.96,1.749 C352.324,307.915,351.742,309.201,351.57,310.606z"/>
</svg>
