<svg xmlns="http://www.w3.org/2000/svg" width="600" height="588.59" viewBox="0 0 600 588.59">
<title>
JR Central Taita Line</title>
<rect width="600" height="588.59" fill="#bab05c"/>
<path d="M255.88,443.63c-91.61,0-154.17-53.9-154.17-145.12,0-88.21,64.46-144.75,150.4-144.75,24.51,0,45.24,1.88,69,10.17l-4.15,49c-20.38-9.43-38.1-12.81-60.33-12.81-56.54,0-93.86,33.91-93.86,96.87s41.46,98.78,94.62,98.78c20.73,0,40.33-2.29,63-10.93l1.88,49.37c-17.74,6-41.85,9.43-66.34,9.43" fill="#fff"/>
<rect x="406.63" y="156.39" width="57.3" height="284.23" fill="#fff"/>
</svg>
