<svg version="1.1" width="287" height="274" viewBox="0 0 287 274" xmlns="http://www.w3.org/2000/svg">
<rect fill="#060" height="100%" width="100%"/>
<path d="m198.1 158.4c12.3 7.4 23.2 19.2 27 31.6 1.8 5.8 0 12.4-5.2 18.4-8 9.1-21.9 14.5-34.6 17.5-13.5 3.2-26.4 4.9-41.8 5-15.3 0-33.4-2.3-49.4-7-10.2-3.3-20.5-7.9-27.6-16.3-4-4.8-6.4-12.2-4.5-17.5 4.3-12.3 14.8-25 27.8-32.1 18.6-10.3 36.7-11.3 53.8-11.6s38.3 2.3 54.6 12.1zm-131.2 31.4c-1.6 4-1.1 7.5.7 11.1 2.3 4.6 5.8 8.2 10.1 11 11.8 7.5 27.4 10.9 39.4 12.9 8.8 1.3 15.3 1.9 26.5 1.9 11.2 0 27.3-1.2 40.6-4.5 9-2.2 19.9-6.4 26-10.7 4.7-3.2 10-8.9 11-15.9.7-4.9-3.4-11.2-6.5-16.1-7.4-11.6-21.5-20-34.8-24.3-10.1-3.2-25.1-4.9-36.4-4.8-11.3 0-25.2 1.4-35.4 4.5-18.4 5.6-34 16.8-41.3 34.9zm123.4-99.7c1.7 2.8 3.9 6.9 3.5 10.3-.6 6.6-7.5 11.5-14.5 12.1 5.7-6.5 9.5-13.1 11-22.4zm-90.9 9.5c1.9 4.7 5.9 10 8.4 12.9-6.3-.5-13.1-4.7-14.3-11.5-.7-3.2 1.2-7.7 3.3-10.9.6 3 1.6 7 2.6 9.5zm84.8-14.5c1.7.8 2.3 2.2 2.1 4.8-1.1 9.5-6.6 18.5-14.1 23.3-8.8 2.2-19 1.7-28.7 1.7s-20.3.4-28.6-1.7c-7-4.4-12.5-13.1-13.8-21.3-.4-3.1-1.2-5.5 2.1-7 10.3-4.4 30.1-5.8 40.3-5.8s29.1 1.1 40.7 5.9zm-40.7-16.9c12.2 0 23 1.2 30 5 3.5 1.8 6.8 4.2 8.4 7.5-11.3-2.3-23.2-4.2-38.4-4.3s-29.1 2.4-38.4 4.3c1.6-3.2 4.8-5.4 8.4-7.5 5.9-3.4 17.8-5 30-5zm-59-37.2c-6.6 2.2-11.8 4.4-15.8 8.5-4.1 4.1-5.6 10.1-5.1 15.6.5 5.9 1 12.1 2.4 17.9 4.3 18.9 13.9 33.5 22.1 47.7-3.2-1.5-5.9-5.4-8.1-8.2-10.8-13.4-20-33.1-22.8-53.2-5.2 11.5-8.4 25.3-9.4 38.9-.5 6.8 1.8 14.1 2.3 20.2.2 3-1.8 6.9-4.4 9.4-11.5 11-17.7 27-17.4 42.9.2 11.1 4.8 21.8 12.4 30 7.6 8.2 17.7 12.9 27.6 17.4 25.9 12 56.7 16.4 75.4 16.4 18.8-.1 48.9-4.5 72.5-15.1 6.7-3 13.5-6 19.8-9.9 12.1-7.7 21.5-20.5 22.9-35 1.5-16.6-4.6-34.3-15.8-45.1-3.3-3.2-6.1-6.9-5.9-11.2.3-5.3 2.1-11 2.3-16.2.3-9.4-3.4-30.2-9.4-42.6-2.6 16.6-8.9 34-18 46.5-3.7 5.1-9.4 13.5-13 14.8 9.5-16.8 18.6-31.1 22.3-48.5.7-3.4 1.3-6.8 1.6-10.2.6-6.8 1.9-12.4-2.1-19.5-3.7-6.4-11.7-9.3-18.2-11.5-15-5-40.5-8.2-59.1-8.2s-43.1 3-59.1 8.2zm-25.9 205c6 5.2 14.3 6.1 21.8 7.7 22.5 2.8 46 3.4 63.2 3.4s26.6-.3 39.6-1c9.7-.6 19.4-1.3 28.9-3.4 4.3-1 9-1.9 12.9-4.1 9.6-5.5 14.5-16.6 17.7-26.7-27.9 18-67.3 27.6-99.1 27.6s-72.5-10-99.1-27.6c1.2 3.9 4.9 16.4 14.1 24.2z" fill="#fff"/>
</svg>
