<svg xmlns="http://www.w3.org/2000/svg" width="65.515625" height="52.136719" viewBox="0 0 65.515625 52.136719" version="1.1">
<g transform="translate(-141.26953,-124.11719)">
<path fill="#de2623" d="m 171.29687,152.44531 4.67969,-6.30078 c 0.28125,-0.44922 0.78125,-0.78125 1.39453,-0.78125 h 22.22657 c -2.22657,-12.10156 -12.69922,-21.24609 -25.51563,-21.24609 -12.75781,0 -23.33984,9.25781 -25.57031,21.30078 v 0.22265 c -0.0547,0.39063 -0.22266,1.28125 -0.16797,1.50391 h -2.22656 l -4.84766,6.30078 h 28.41406 c 0.61328,-0.10937 1.22266,-0.5 1.61328,-1 m -4.62109,-5.41015 h -11.42187 c 0.0547,-0.44532 0.16796,-1.11719 0.22265,-1.5625 2.0625,-8.3086 9.58203,-14.60938 18.55078,-14.60938 6.46485,0 12.20313,3.23438 15.65625,8.14453 h -14.48437 c -1.17188,0 -2.33985,0.66797 -3.34375,1.89453 l -3.51172,5.07422 c -0.33203,0.66797 -0.94531,1.0586 -1.66797,1.0586"/>
<path fill="#de2623" d="m 201.9375,153.28125 4.84766,-6.30078 H 178.375 c -0.72656,0 -1.28125,0.33203 -1.67188,0.89062 l -4.67968,6.30078 c -0.28125,0.44532 -0.78125,0.78125 -1.39453,0.78125 h -22.28516 c 2.23047,12.09766 12.75781,21.30079 25.57422,21.30079 12.69922,0 23.33984,-9.3125 25.57031,-21.30079 v -0.0547 l 0.0547,-0.16797 c 0.0547,-0.39063 0.22265,-1.22656 0.16797,-1.44922 z m -9.46875,1.50391 c -2.0625,8.2539 -9.58203,14.60937 -18.55078,14.60937 -6.51953,0 -12.20313,-3.23437 -15.65625,-8.14062 h 14.48437 c 1.17188,0 2.33985,-0.66797 3.34375,-1.95313 l 3.50782,-5.01562 c 0.33593,-0.61329 0.94921,-1.00391 1.67187,-1.00391 h 11.42188 c 0,0.44531 -0.11329,1.05859 -0.22266,1.50391"/>
</g>
</svg>
