<svg width="170" height="170" viewBox="0 0 170 170" version="1.1" xmlns="http://www.w3.org/2000/svg">
<rect fill="#F2D01F" rx="19.75" ry="19.75" width="170" height="170"/>
<rect fill="#FFF" x="19" y="19" width="132" height="132"/>
<path d="M46.271,121.247 C44.727,121.247 43.166,121.161 41.631,120.993 40.075,120.821 38.547,120.563 37.088,120.229 L36.184,120.022 V108.745 L37.741,109.306 C38.779,109.681 39.79,109.964 40.747,110.15 41.697,110.332 42.71,110.425 43.758,110.425 47.37,110.425 49.885,109.249 51.447,106.829 53.093,104.284 53.927,99.899 53.927,93.802 L53.927,48.124 H66.562 V95.924 C66.562,104.453 64.924,110.856 61.696,114.947 58.405,119.127 53.215,121.247 46.271,121.247"/>
<path d="M119.551,120.653 86.927,64.895 87.121,120.651 H75.461 V48.123 H90.115 L122.147,103.346 122.183,48.122 H133.894 V120.652 H119.551"/>
</svg>
